ISO-10303-21;
HEADER;
/* Generated by software containing ST-Developer
 * from STEP Tools, Inc. (www.steptools.com) 
 */

FILE_DESCRIPTION(
/* description */ (''),
/* implementation_level */ '2;1');

FILE_NAME(
/* name */ 'QuizBox_enclosure.step',
/* time_stamp */ '2026-05-26T10:36:28+02:00',
/* author */ (''),
/* organization */ (''),
/* preprocessor_version */ 'ST-DEVELOPER v20.1',
/* originating_system */ 'Autodesk Translation Framework v15.8.0.0',
/* authorisation */ '');

FILE_SCHEMA (('AUTOMOTIVE_DESIGN { 1 0 10303 214 3 1 1 }'));
ENDSEC;

DATA;
#10=MECHANICAL_DESIGN_GEOMETRIC_PRESENTATION_REPRESENTATION('',(#13),#779);
#11=SHAPE_REPRESENTATION_RELATIONSHIP('SRR','None',#786,#12);
#12=ADVANCED_BREP_SHAPE_REPRESENTATION('',(#14),#778);
#13=STYLED_ITEM('',(#795),#14);
#14=MANIFOLD_SOLID_BREP('Corpo1',#471);
#15=FACE_BOUND('',#80,.T.);
#16=FACE_BOUND('',#81,.T.);
#17=FACE_BOUND('',#82,.T.);
#18=FACE_BOUND('',#83,.T.);
#19=FACE_BOUND('',#84,.T.);
#20=FACE_BOUND('',#86,.T.);
#21=FACE_BOUND('',#88,.T.);
#22=FACE_BOUND('',#94,.T.);
#23=FACE_BOUND('',#99,.T.);
#24=CIRCLE('',#491,0.749999999999997);
#25=CIRCLE('',#492,0.749999999999997);
#26=CIRCLE('',#495,0.749999999999993);
#27=CIRCLE('',#496,0.749999999999993);
#28=CIRCLE('',#499,0.749999999999997);
#29=CIRCLE('',#500,0.749999999999997);
#30=CIRCLE('',#503,0.749999999999993);
#31=CIRCLE('',#504,0.749999999999993);
#32=CIRCLE('',#508,4.);
#33=CIRCLE('',#510,4.);
#34=CYLINDRICAL_SURFACE('',#490,0.749999999999997);
#35=CYLINDRICAL_SURFACE('',#494,0.749999999999993);
#36=CYLINDRICAL_SURFACE('',#498,0.749999999999997);
#37=CYLINDRICAL_SURFACE('',#502,0.749999999999993);
#38=CYLINDRICAL_SURFACE('',#512,4.);
#39=FACE_OUTER_BOUND('',#66,.T.);
#40=FACE_OUTER_BOUND('',#67,.T.);
#41=FACE_OUTER_BOUND('',#68,.T.);
#42=FACE_OUTER_BOUND('',#69,.T.);
#43=FACE_OUTER_BOUND('',#70,.T.);
#44=FACE_OUTER_BOUND('',#71,.T.);
#45=FACE_OUTER_BOUND('',#72,.T.);
#46=FACE_OUTER_BOUND('',#73,.T.);
#47=FACE_OUTER_BOUND('',#74,.T.);
#48=FACE_OUTER_BOUND('',#75,.T.);
#49=FACE_OUTER_BOUND('',#76,.T.);
#50=FACE_OUTER_BOUND('',#77,.T.);
#51=FACE_OUTER_BOUND('',#78,.T.);
#52=FACE_OUTER_BOUND('',#79,.T.);
#53=FACE_OUTER_BOUND('',#85,.T.);
#54=FACE_OUTER_BOUND('',#87,.T.);
#55=FACE_OUTER_BOUND('',#89,.T.);
#56=FACE_OUTER_BOUND('',#90,.T.);
#57=FACE_OUTER_BOUND('',#91,.T.);
#58=FACE_OUTER_BOUND('',#92,.T.);
#59=FACE_OUTER_BOUND('',#93,.T.);
#60=FACE_OUTER_BOUND('',#95,.T.);
#61=FACE_OUTER_BOUND('',#96,.T.);
#62=FACE_OUTER_BOUND('',#97,.T.);
#63=FACE_OUTER_BOUND('',#98,.T.);
#64=FACE_OUTER_BOUND('',#100,.T.);
#65=FACE_OUTER_BOUND('',#101,.T.);
#66=EDGE_LOOP('',(#302,#303,#304,#305));
#67=EDGE_LOOP('',(#306,#307,#308,#309));
#68=EDGE_LOOP('',(#310,#311,#312,#313));
#69=EDGE_LOOP('',(#314,#315,#316,#317));
#70=EDGE_LOOP('',(#318,#319,#320,#321));
#71=EDGE_LOOP('',(#322,#323,#324,#325));
#72=EDGE_LOOP('',(#326));
#73=EDGE_LOOP('',(#327,#328,#329,#330));
#74=EDGE_LOOP('',(#331));
#75=EDGE_LOOP('',(#332,#333,#334,#335));
#76=EDGE_LOOP('',(#336));
#77=EDGE_LOOP('',(#337,#338,#339,#340));
#78=EDGE_LOOP('',(#341));
#79=EDGE_LOOP('',(#342,#343,#344,#345));
#80=EDGE_LOOP('',(#346,#347,#348,#349));
#81=EDGE_LOOP('',(#350));
#82=EDGE_LOOP('',(#351));
#83=EDGE_LOOP('',(#352));
#84=EDGE_LOOP('',(#353));
#85=EDGE_LOOP('',(#354,#355,#356,#357));
#86=EDGE_LOOP('',(#358,#359,#360,#361));
#87=EDGE_LOOP('',(#362,#363,#364,#365));
#88=EDGE_LOOP('',(#366,#367,#368,#369));
#89=EDGE_LOOP('',(#370,#371,#372,#373));
#90=EDGE_LOOP('',(#374,#375,#376,#377));
#91=EDGE_LOOP('',(#378,#379,#380,#381));
#92=EDGE_LOOP('',(#382,#383,#384,#385));
#93=EDGE_LOOP('',(#386,#387,#388,#389));
#94=EDGE_LOOP('',(#390,#391,#392,#393));
#95=EDGE_LOOP('',(#394,#395,#396,#397));
#96=EDGE_LOOP('',(#398,#399,#400,#401));
#97=EDGE_LOOP('',(#402,#403,#404,#405));
#98=EDGE_LOOP('',(#406,#407,#408,#409));
#99=EDGE_LOOP('',(#410,#411,#412,#413));
#100=EDGE_LOOP('',(#414,#415,#416,#417));
#101=EDGE_LOOP('',(#418,#419,#420,#421));
#102=LINE('',#652,#152);
#103=LINE('',#654,#153);
#104=LINE('',#656,#154);
#105=LINE('',#657,#155);
#106=LINE('',#661,#156);
#107=LINE('',#663,#157);
#108=LINE('',#665,#158);
#109=LINE('',#666,#159);
#110=LINE('',#669,#160);
#111=LINE('',#671,#161);
#112=LINE('',#672,#162);
#113=LINE('',#675,#163);
#114=LINE('',#677,#164);
#115=LINE('',#678,#165);
#116=LINE('',#680,#166);
#117=LINE('',#681,#167);
#118=LINE('',#686,#168);
#119=LINE('',#693,#169);
#120=LINE('',#700,#170);
#121=LINE('',#707,#171);
#122=LINE('',#713,#172);
#123=LINE('',#714,#173);
#124=LINE('',#715,#174);
#125=LINE('',#718,#175);
#126=LINE('',#720,#176);
#127=LINE('',#722,#177);
#128=LINE('',#723,#178);
#129=LINE('',#726,#179);
#130=LINE('',#727,#180);
#131=LINE('',#730,#181);
#132=LINE('',#734,#182);
#133=LINE('',#735,#183);
#134=LINE('',#739,#184);
#135=LINE('',#740,#185);
#136=LINE('',#741,#186);
#137=LINE('',#744,#187);
#138=LINE('',#746,#188);
#139=LINE('',#748,#189);
#140=LINE('',#751,#190);
#141=LINE('',#752,#191);
#142=LINE('',#754,#192);
#143=LINE('',#756,#193);
#144=LINE('',#760,#194);
#145=LINE('',#761,#195);
#146=LINE('',#764,#196);
#147=LINE('',#765,#197);
#148=LINE('',#767,#198);
#149=LINE('',#770,#199);
#150=LINE('',#771,#200);
#151=LINE('',#773,#201);
#152=VECTOR('',#526,10.);
#153=VECTOR('',#527,10.);
#154=VECTOR('',#528,10.);
#155=VECTOR('',#529,10.);
#156=VECTOR('',#532,10.);
#157=VECTOR('',#533,10.);
#158=VECTOR('',#534,10.);
#159=VECTOR('',#535,10.);
#160=VECTOR('',#538,10.);
#161=VECTOR('',#539,10.);
#162=VECTOR('',#540,10.);
#163=VECTOR('',#543,10.);
#164=VECTOR('',#544,10.);
#165=VECTOR('',#545,10.);
#166=VECTOR('',#548,10.);
#167=VECTOR('',#549,10.);
#168=VECTOR('',#554,0.749999999999997);
#169=VECTOR('',#563,0.749999999999993);
#170=VECTOR('',#572,0.749999999999997);
#171=VECTOR('',#581,0.749999999999993);
#172=VECTOR('',#588,10.);
#173=VECTOR('',#589,10.);
#174=VECTOR('',#590,10.);
#175=VECTOR('',#591,10.);
#176=VECTOR('',#592,10.);
#177=VECTOR('',#593,10.);
#178=VECTOR('',#594,10.);
#179=VECTOR('',#597,10.);
#180=VECTOR('',#598,10.);
#181=VECTOR('',#599,10.);
#182=VECTOR('',#602,10.);
#183=VECTOR('',#603,10.);
#184=VECTOR('',#606,10.);
#185=VECTOR('',#607,10.);
#186=VECTOR('',#608,10.);
#187=VECTOR('',#609,10.);
#188=VECTOR('',#610,10.);
#189=VECTOR('',#611,10.);
#190=VECTOR('',#616,10.);
#191=VECTOR('',#617,10.);
#192=VECTOR('',#620,10.);
#193=VECTOR('',#623,10.);
#194=VECTOR('',#628,10.);
#195=VECTOR('',#629,10.);
#196=VECTOR('',#632,10.);
#197=VECTOR('',#633,10.);
#198=VECTOR('',#636,10.);
#199=VECTOR('',#639,10.);
#200=VECTOR('',#640,10.);
#201=VECTOR('',#643,10.);
#202=VERTEX_POINT('',#650);
#203=VERTEX_POINT('',#651);
#204=VERTEX_POINT('',#653);
#205=VERTEX_POINT('',#655);
#206=VERTEX_POINT('',#659);
#207=VERTEX_POINT('',#660);
#208=VERTEX_POINT('',#662);
#209=VERTEX_POINT('',#664);
#210=VERTEX_POINT('',#668);
#211=VERTEX_POINT('',#670);
#212=VERTEX_POINT('',#674);
#213=VERTEX_POINT('',#676);
#214=VERTEX_POINT('',#683);
#215=VERTEX_POINT('',#685);
#216=VERTEX_POINT('',#690);
#217=VERTEX_POINT('',#692);
#218=VERTEX_POINT('',#697);
#219=VERTEX_POINT('',#699);
#220=VERTEX_POINT('',#704);
#221=VERTEX_POINT('',#706);
#222=VERTEX_POINT('',#711);
#223=VERTEX_POINT('',#712);
#224=VERTEX_POINT('',#716);
#225=VERTEX_POINT('',#717);
#226=VERTEX_POINT('',#719);
#227=VERTEX_POINT('',#721);
#228=VERTEX_POINT('',#725);
#229=VERTEX_POINT('',#728);
#230=VERTEX_POINT('',#729);
#231=VERTEX_POINT('',#731);
#232=VERTEX_POINT('',#733);
#233=VERTEX_POINT('',#737);
#234=VERTEX_POINT('',#738);
#235=VERTEX_POINT('',#742);
#236=VERTEX_POINT('',#743);
#237=VERTEX_POINT('',#745);
#238=VERTEX_POINT('',#747);
#239=VERTEX_POINT('',#759);
#240=VERTEX_POINT('',#763);
#241=VERTEX_POINT('',#769);
#242=EDGE_CURVE('',#202,#203,#102,.T.);
#243=EDGE_CURVE('',#204,#203,#103,.T.);
#244=EDGE_CURVE('',#205,#204,#104,.T.);
#245=EDGE_CURVE('',#202,#205,#105,.T.);
#246=EDGE_CURVE('',#206,#207,#106,.T.);
#247=EDGE_CURVE('',#206,#208,#107,.T.);
#248=EDGE_CURVE('',#209,#208,#108,.T.);
#249=EDGE_CURVE('',#207,#209,#109,.T.);
#250=EDGE_CURVE('',#207,#210,#110,.T.);
#251=EDGE_CURVE('',#211,#209,#111,.T.);
#252=EDGE_CURVE('',#210,#211,#112,.T.);
#253=EDGE_CURVE('',#210,#212,#113,.T.);
#254=EDGE_CURVE('',#213,#211,#114,.T.);
#255=EDGE_CURVE('',#212,#213,#115,.T.);
#256=EDGE_CURVE('',#212,#206,#116,.T.);
#257=EDGE_CURVE('',#208,#213,#117,.T.);
#258=EDGE_CURVE('',#214,#214,#24,.T.);
#259=EDGE_CURVE('',#214,#215,#118,.T.);
#260=EDGE_CURVE('',#215,#215,#25,.T.);
#261=EDGE_CURVE('',#216,#216,#26,.T.);
#262=EDGE_CURVE('',#216,#217,#119,.T.);
#263=EDGE_CURVE('',#217,#217,#27,.T.);
#264=EDGE_CURVE('',#218,#218,#28,.T.);
#265=EDGE_CURVE('',#218,#219,#120,.T.);
#266=EDGE_CURVE('',#219,#219,#29,.T.);
#267=EDGE_CURVE('',#220,#220,#30,.T.);
#268=EDGE_CURVE('',#220,#221,#121,.T.);
#269=EDGE_CURVE('',#221,#221,#31,.T.);
#270=EDGE_CURVE('',#222,#223,#122,.T.);
#271=EDGE_CURVE('',#223,#204,#123,.T.);
#272=EDGE_CURVE('',#203,#222,#124,.T.);
#273=EDGE_CURVE('',#224,#225,#125,.T.);
#274=EDGE_CURVE('',#225,#226,#126,.T.);
#275=EDGE_CURVE('',#226,#227,#127,.T.);
#276=EDGE_CURVE('',#227,#224,#128,.T.);
#277=EDGE_CURVE('',#228,#223,#129,.T.);
#278=EDGE_CURVE('',#205,#228,#130,.T.);
#279=EDGE_CURVE('',#229,#230,#131,.T.);
#280=EDGE_CURVE('',#230,#231,#32,.T.);
#281=EDGE_CURVE('',#231,#232,#132,.T.);
#282=EDGE_CURVE('',#232,#229,#133,.T.);
#283=EDGE_CURVE('',#233,#234,#134,.T.);
#284=EDGE_CURVE('',#233,#227,#135,.T.);
#285=EDGE_CURVE('',#234,#226,#136,.T.);
#286=EDGE_CURVE('',#235,#236,#137,.T.);
#287=EDGE_CURVE('',#236,#237,#138,.T.);
#288=EDGE_CURVE('',#237,#238,#139,.T.);
#289=EDGE_CURVE('',#238,#235,#33,.T.);
#290=EDGE_CURVE('',#232,#237,#140,.T.);
#291=EDGE_CURVE('',#231,#238,#141,.T.);
#292=EDGE_CURVE('',#230,#235,#142,.T.);
#293=EDGE_CURVE('',#229,#236,#143,.T.);
#294=EDGE_CURVE('',#239,#233,#144,.T.);
#295=EDGE_CURVE('',#239,#224,#145,.T.);
#296=EDGE_CURVE('',#234,#240,#146,.T.);
#297=EDGE_CURVE('',#240,#225,#147,.T.);
#298=EDGE_CURVE('',#240,#239,#148,.T.);
#299=EDGE_CURVE('',#222,#241,#149,.T.);
#300=EDGE_CURVE('',#241,#202,#150,.T.);
#301=EDGE_CURVE('',#228,#241,#151,.T.);
#302=ORIENTED_EDGE('',*,*,#242,.T.);
#303=ORIENTED_EDGE('',*,*,#243,.F.);
#304=ORIENTED_EDGE('',*,*,#244,.F.);
#305=ORIENTED_EDGE('',*,*,#245,.F.);
#306=ORIENTED_EDGE('',*,*,#246,.F.);
#307=ORIENTED_EDGE('',*,*,#247,.T.);
#308=ORIENTED_EDGE('',*,*,#248,.F.);
#309=ORIENTED_EDGE('',*,*,#249,.F.);
#310=ORIENTED_EDGE('',*,*,#250,.F.);
#311=ORIENTED_EDGE('',*,*,#249,.T.);
#312=ORIENTED_EDGE('',*,*,#251,.F.);
#313=ORIENTED_EDGE('',*,*,#252,.F.);
#314=ORIENTED_EDGE('',*,*,#253,.F.);
#315=ORIENTED_EDGE('',*,*,#252,.T.);
#316=ORIENTED_EDGE('',*,*,#254,.F.);
#317=ORIENTED_EDGE('',*,*,#255,.F.);
#318=ORIENTED_EDGE('',*,*,#256,.F.);
#319=ORIENTED_EDGE('',*,*,#255,.T.);
#320=ORIENTED_EDGE('',*,*,#257,.F.);
#321=ORIENTED_EDGE('',*,*,#247,.F.);
#322=ORIENTED_EDGE('',*,*,#258,.F.);
#323=ORIENTED_EDGE('',*,*,#259,.T.);
#324=ORIENTED_EDGE('',*,*,#260,.T.);
#325=ORIENTED_EDGE('',*,*,#259,.F.);
#326=ORIENTED_EDGE('',*,*,#260,.F.);
#327=ORIENTED_EDGE('',*,*,#261,.F.);
#328=ORIENTED_EDGE('',*,*,#262,.T.);
#329=ORIENTED_EDGE('',*,*,#263,.T.);
#330=ORIENTED_EDGE('',*,*,#262,.F.);
#331=ORIENTED_EDGE('',*,*,#263,.F.);
#332=ORIENTED_EDGE('',*,*,#264,.F.);
#333=ORIENTED_EDGE('',*,*,#265,.T.);
#334=ORIENTED_EDGE('',*,*,#266,.T.);
#335=ORIENTED_EDGE('',*,*,#265,.F.);
#336=ORIENTED_EDGE('',*,*,#266,.F.);
#337=ORIENTED_EDGE('',*,*,#267,.F.);
#338=ORIENTED_EDGE('',*,*,#268,.T.);
#339=ORIENTED_EDGE('',*,*,#269,.T.);
#340=ORIENTED_EDGE('',*,*,#268,.F.);
#341=ORIENTED_EDGE('',*,*,#269,.F.);
#342=ORIENTED_EDGE('',*,*,#270,.T.);
#343=ORIENTED_EDGE('',*,*,#271,.T.);
#344=ORIENTED_EDGE('',*,*,#243,.T.);
#345=ORIENTED_EDGE('',*,*,#272,.T.);
#346=ORIENTED_EDGE('',*,*,#273,.T.);
#347=ORIENTED_EDGE('',*,*,#274,.T.);
#348=ORIENTED_EDGE('',*,*,#275,.T.);
#349=ORIENTED_EDGE('',*,*,#276,.T.);
#350=ORIENTED_EDGE('',*,*,#267,.T.);
#351=ORIENTED_EDGE('',*,*,#264,.T.);
#352=ORIENTED_EDGE('',*,*,#261,.T.);
#353=ORIENTED_EDGE('',*,*,#258,.T.);
#354=ORIENTED_EDGE('',*,*,#244,.T.);
#355=ORIENTED_EDGE('',*,*,#271,.F.);
#356=ORIENTED_EDGE('',*,*,#277,.F.);
#357=ORIENTED_EDGE('',*,*,#278,.F.);
#358=ORIENTED_EDGE('',*,*,#279,.T.);
#359=ORIENTED_EDGE('',*,*,#280,.T.);
#360=ORIENTED_EDGE('',*,*,#281,.T.);
#361=ORIENTED_EDGE('',*,*,#282,.T.);
#362=ORIENTED_EDGE('',*,*,#283,.F.);
#363=ORIENTED_EDGE('',*,*,#284,.T.);
#364=ORIENTED_EDGE('',*,*,#275,.F.);
#365=ORIENTED_EDGE('',*,*,#285,.F.);
#366=ORIENTED_EDGE('',*,*,#286,.T.);
#367=ORIENTED_EDGE('',*,*,#287,.T.);
#368=ORIENTED_EDGE('',*,*,#288,.T.);
#369=ORIENTED_EDGE('',*,*,#289,.T.);
#370=ORIENTED_EDGE('',*,*,#288,.F.);
#371=ORIENTED_EDGE('',*,*,#290,.F.);
#372=ORIENTED_EDGE('',*,*,#281,.F.);
#373=ORIENTED_EDGE('',*,*,#291,.T.);
#374=ORIENTED_EDGE('',*,*,#289,.F.);
#375=ORIENTED_EDGE('',*,*,#291,.F.);
#376=ORIENTED_EDGE('',*,*,#280,.F.);
#377=ORIENTED_EDGE('',*,*,#292,.T.);
#378=ORIENTED_EDGE('',*,*,#286,.F.);
#379=ORIENTED_EDGE('',*,*,#292,.F.);
#380=ORIENTED_EDGE('',*,*,#279,.F.);
#381=ORIENTED_EDGE('',*,*,#293,.T.);
#382=ORIENTED_EDGE('',*,*,#287,.F.);
#383=ORIENTED_EDGE('',*,*,#293,.F.);
#384=ORIENTED_EDGE('',*,*,#282,.F.);
#385=ORIENTED_EDGE('',*,*,#290,.T.);
#386=ORIENTED_EDGE('',*,*,#294,.F.);
#387=ORIENTED_EDGE('',*,*,#295,.T.);
#388=ORIENTED_EDGE('',*,*,#276,.F.);
#389=ORIENTED_EDGE('',*,*,#284,.F.);
#390=ORIENTED_EDGE('',*,*,#253,.T.);
#391=ORIENTED_EDGE('',*,*,#256,.T.);
#392=ORIENTED_EDGE('',*,*,#246,.T.);
#393=ORIENTED_EDGE('',*,*,#250,.T.);
#394=ORIENTED_EDGE('',*,*,#296,.F.);
#395=ORIENTED_EDGE('',*,*,#285,.T.);
#396=ORIENTED_EDGE('',*,*,#274,.F.);
#397=ORIENTED_EDGE('',*,*,#297,.F.);
#398=ORIENTED_EDGE('',*,*,#298,.F.);
#399=ORIENTED_EDGE('',*,*,#297,.T.);
#400=ORIENTED_EDGE('',*,*,#273,.F.);
#401=ORIENTED_EDGE('',*,*,#295,.F.);
#402=ORIENTED_EDGE('',*,*,#299,.F.);
#403=ORIENTED_EDGE('',*,*,#272,.F.);
#404=ORIENTED_EDGE('',*,*,#242,.F.);
#405=ORIENTED_EDGE('',*,*,#300,.F.);
#406=ORIENTED_EDGE('',*,*,#277,.T.);
#407=ORIENTED_EDGE('',*,*,#270,.F.);
#408=ORIENTED_EDGE('',*,*,#299,.T.);
#409=ORIENTED_EDGE('',*,*,#301,.F.);
#410=ORIENTED_EDGE('',*,*,#254,.T.);
#411=ORIENTED_EDGE('',*,*,#251,.T.);
#412=ORIENTED_EDGE('',*,*,#248,.T.);
#413=ORIENTED_EDGE('',*,*,#257,.T.);
#414=ORIENTED_EDGE('',*,*,#294,.T.);
#415=ORIENTED_EDGE('',*,*,#283,.T.);
#416=ORIENTED_EDGE('',*,*,#296,.T.);
#417=ORIENTED_EDGE('',*,*,#298,.T.);
#418=ORIENTED_EDGE('',*,*,#301,.T.);
#419=ORIENTED_EDGE('',*,*,#300,.T.);
#420=ORIENTED_EDGE('',*,*,#245,.T.);
#421=ORIENTED_EDGE('',*,*,#278,.T.);
#422=PLANE('',#485);
#423=PLANE('',#486);
#424=PLANE('',#487);
#425=PLANE('',#488);
#426=PLANE('',#489);
#427=PLANE('',#493);
#428=PLANE('',#497);
#429=PLANE('',#501);
#430=PLANE('',#505);
#431=PLANE('',#506);
#432=PLANE('',#507);
#433=PLANE('',#509);
#434=PLANE('',#511);
#435=PLANE('',#513);
#436=PLANE('',#514);
#437=PLANE('',#515);
#438=PLANE('',#516);
#439=PLANE('',#517);
#440=PLANE('',#518);
#441=PLANE('',#519);
#442=PLANE('',#520);
#443=PLANE('',#521);
#444=ADVANCED_FACE('',(#39),#422,.T.);
#445=ADVANCED_FACE('',(#40),#423,.F.);
#446=ADVANCED_FACE('',(#41),#424,.F.);
#447=ADVANCED_FACE('',(#42),#425,.F.);
#448=ADVANCED_FACE('',(#43),#426,.F.);
#449=ADVANCED_FACE('',(#44),#34,.F.);
#450=ADVANCED_FACE('',(#45),#427,.T.);
#451=ADVANCED_FACE('',(#46),#35,.F.);
#452=ADVANCED_FACE('',(#47),#428,.T.);
#453=ADVANCED_FACE('',(#48),#36,.F.);
#454=ADVANCED_FACE('',(#49),#429,.T.);
#455=ADVANCED_FACE('',(#50),#37,.F.);
#456=ADVANCED_FACE('',(#51),#430,.T.);
#457=ADVANCED_FACE('',(#52,#15,#16,#17,#18,#19),#431,.T.);
#458=ADVANCED_FACE('',(#53,#20),#432,.T.);
#459=ADVANCED_FACE('',(#54,#21),#433,.T.);
#460=ADVANCED_FACE('',(#55),#434,.F.);
#461=ADVANCED_FACE('',(#56),#38,.F.);
#462=ADVANCED_FACE('',(#57),#435,.F.);
#463=ADVANCED_FACE('',(#58),#436,.F.);
#464=ADVANCED_FACE('',(#59,#22),#437,.T.);
#465=ADVANCED_FACE('',(#60),#438,.T.);
#466=ADVANCED_FACE('',(#61),#439,.T.);
#467=ADVANCED_FACE('',(#62),#440,.T.);
#468=ADVANCED_FACE('',(#63,#23),#441,.T.);
#469=ADVANCED_FACE('',(#64),#442,.T.);
#470=ADVANCED_FACE('',(#65),#443,.F.);
#471=CLOSED_SHELL('',(#444,#445,#446,#447,#448,#449,#450,#451,#452,#453,
#454,#455,#456,#457,#458,#459,#460,#461,#462,#463,#464,#465,#466,#467,#468,
#469,#470));
#472=DERIVED_UNIT_ELEMENT(#474,1.);
#473=DERIVED_UNIT_ELEMENT(#781,-3.);
#474=(
MASS_UNIT()
NAMED_UNIT(*)
SI_UNIT(.KILO.,.GRAM.)
);
#475=DERIVED_UNIT((#472,#473));
#476=MEASURE_REPRESENTATION_ITEM('density measure',
POSITIVE_RATIO_MEASURE(7850.),#475);
#477=PROPERTY_DEFINITION_REPRESENTATION(#482,#479);
#478=PROPERTY_DEFINITION_REPRESENTATION(#483,#480);
#479=REPRESENTATION('material name',(#481),#778);
#480=REPRESENTATION('density',(#476),#778);
#481=DESCRIPTIVE_REPRESENTATION_ITEM('Acciaio','Acciaio');
#482=PROPERTY_DEFINITION('material property','material name',#788);
#483=PROPERTY_DEFINITION('material property','density of part',#788);
#484=AXIS2_PLACEMENT_3D('',#648,#522,#523);
#485=AXIS2_PLACEMENT_3D('',#649,#524,#525);
#486=AXIS2_PLACEMENT_3D('',#658,#530,#531);
#487=AXIS2_PLACEMENT_3D('',#667,#536,#537);
#488=AXIS2_PLACEMENT_3D('',#673,#541,#542);
#489=AXIS2_PLACEMENT_3D('',#679,#546,#547);
#490=AXIS2_PLACEMENT_3D('',#682,#550,#551);
#491=AXIS2_PLACEMENT_3D('',#684,#552,#553);
#492=AXIS2_PLACEMENT_3D('',#687,#555,#556);
#493=AXIS2_PLACEMENT_3D('',#688,#557,#558);
#494=AXIS2_PLACEMENT_3D('',#689,#559,#560);
#495=AXIS2_PLACEMENT_3D('',#691,#561,#562);
#496=AXIS2_PLACEMENT_3D('',#694,#564,#565);
#497=AXIS2_PLACEMENT_3D('',#695,#566,#567);
#498=AXIS2_PLACEMENT_3D('',#696,#568,#569);
#499=AXIS2_PLACEMENT_3D('',#698,#570,#571);
#500=AXIS2_PLACEMENT_3D('',#701,#573,#574);
#501=AXIS2_PLACEMENT_3D('',#702,#575,#576);
#502=AXIS2_PLACEMENT_3D('',#703,#577,#578);
#503=AXIS2_PLACEMENT_3D('',#705,#579,#580);
#504=AXIS2_PLACEMENT_3D('',#708,#582,#583);
#505=AXIS2_PLACEMENT_3D('',#709,#584,#585);
#506=AXIS2_PLACEMENT_3D('',#710,#586,#587);
#507=AXIS2_PLACEMENT_3D('',#724,#595,#596);
#508=AXIS2_PLACEMENT_3D('',#732,#600,#601);
#509=AXIS2_PLACEMENT_3D('',#736,#604,#605);
#510=AXIS2_PLACEMENT_3D('',#749,#612,#613);
#511=AXIS2_PLACEMENT_3D('',#750,#614,#615);
#512=AXIS2_PLACEMENT_3D('',#753,#618,#619);
#513=AXIS2_PLACEMENT_3D('',#755,#621,#622);
#514=AXIS2_PLACEMENT_3D('',#757,#624,#625);
#515=AXIS2_PLACEMENT_3D('',#758,#626,#627);
#516=AXIS2_PLACEMENT_3D('',#762,#630,#631);
#517=AXIS2_PLACEMENT_3D('',#766,#634,#635);
#518=AXIS2_PLACEMENT_3D('',#768,#637,#638);
#519=AXIS2_PLACEMENT_3D('',#772,#641,#642);
#520=AXIS2_PLACEMENT_3D('',#774,#644,#645);
#521=AXIS2_PLACEMENT_3D('',#775,#646,#647);
#522=DIRECTION('axis',(0.,0.,1.));
#523=DIRECTION('refdir',(1.,0.,0.));
#524=DIRECTION('center_axis',(1.,0.,0.));
#525=DIRECTION('ref_axis',(0.,1.,0.));
#526=DIRECTION('',(0.,0.,1.));
#527=DIRECTION('',(0.,1.,0.));
#528=DIRECTION('',(0.,0.,1.));
#529=DIRECTION('',(0.,-1.,0.));
#530=DIRECTION('center_axis',(0.,0.,-1.));
#531=DIRECTION('ref_axis',(0.,-1.,0.));
#532=DIRECTION('',(0.,-1.,0.));
#533=DIRECTION('',(-1.,0.,0.));
#534=DIRECTION('',(0.,1.,0.));
#535=DIRECTION('',(-1.,0.,0.));
#536=DIRECTION('center_axis',(0.,-1.,0.));
#537=DIRECTION('ref_axis',(0.,0.,1.));
#538=DIRECTION('',(0.,0.,1.));
#539=DIRECTION('',(0.,0.,-1.));
#540=DIRECTION('',(-1.,0.,0.));
#541=DIRECTION('center_axis',(0.,0.,1.));
#542=DIRECTION('ref_axis',(0.,1.,0.));
#543=DIRECTION('',(0.,1.,0.));
#544=DIRECTION('',(0.,-1.,0.));
#545=DIRECTION('',(-1.,0.,0.));
#546=DIRECTION('center_axis',(0.,1.,0.));
#547=DIRECTION('ref_axis',(0.,0.,-1.));
#548=DIRECTION('',(0.,0.,-1.));
#549=DIRECTION('',(0.,0.,1.));
#550=DIRECTION('center_axis',(0.,0.,-1.));
#551=DIRECTION('ref_axis',(-1.,0.,0.));
#552=DIRECTION('center_axis',(0.,0.,-1.));
#553=DIRECTION('ref_axis',(-1.,0.,0.));
#554=DIRECTION('',(0.,0.,-1.));
#555=DIRECTION('center_axis',(0.,0.,-1.));
#556=DIRECTION('ref_axis',(-1.,0.,0.));
#557=DIRECTION('center_axis',(0.,0.,1.));
#558=DIRECTION('ref_axis',(-1.,0.,0.));
#559=DIRECTION('center_axis',(0.,0.,-1.));
#560=DIRECTION('ref_axis',(-1.,0.,0.));
#561=DIRECTION('center_axis',(0.,0.,-1.));
#562=DIRECTION('ref_axis',(-1.,0.,0.));
#563=DIRECTION('',(0.,0.,-1.));
#564=DIRECTION('center_axis',(0.,0.,-1.));
#565=DIRECTION('ref_axis',(-1.,0.,0.));
#566=DIRECTION('center_axis',(0.,0.,1.));
#567=DIRECTION('ref_axis',(-1.,0.,0.));
#568=DIRECTION('center_axis',(0.,0.,-1.));
#569=DIRECTION('ref_axis',(-1.,0.,0.));
#570=DIRECTION('center_axis',(0.,0.,-1.));
#571=DIRECTION('ref_axis',(-1.,0.,0.));
#572=DIRECTION('',(0.,0.,-1.));
#573=DIRECTION('center_axis',(0.,0.,-1.));
#574=DIRECTION('ref_axis',(-1.,0.,0.));
#575=DIRECTION('center_axis',(0.,0.,1.));
#576=DIRECTION('ref_axis',(-1.,0.,0.));
#577=DIRECTION('center_axis',(0.,0.,-1.));
#578=DIRECTION('ref_axis',(-1.,0.,0.));
#579=DIRECTION('center_axis',(0.,0.,-1.));
#580=DIRECTION('ref_axis',(-1.,0.,0.));
#581=DIRECTION('',(0.,0.,-1.));
#582=DIRECTION('center_axis',(0.,0.,-1.));
#583=DIRECTION('ref_axis',(-1.,0.,0.));
#584=DIRECTION('center_axis',(0.,0.,1.));
#585=DIRECTION('ref_axis',(-1.,0.,0.));
#586=DIRECTION('center_axis',(0.,0.,1.));
#587=DIRECTION('ref_axis',(1.,0.,0.));
#588=DIRECTION('',(0.,-1.,0.));
#589=DIRECTION('',(1.,0.,0.));
#590=DIRECTION('',(-1.,0.,0.));
#591=DIRECTION('',(1.,0.,0.));
#592=DIRECTION('',(0.,-1.,0.));
#593=DIRECTION('',(-1.,0.,0.));
#594=DIRECTION('',(0.,1.,0.));
#595=DIRECTION('center_axis',(0.,-1.,0.));
#596=DIRECTION('ref_axis',(1.,0.,0.));
#597=DIRECTION('',(0.,0.,1.));
#598=DIRECTION('',(-1.,0.,0.));
#599=DIRECTION('',(5.53972562213935E-8,0.,0.999999999999998));
#600=DIRECTION('center_axis',(0.,1.,0.));
#601=DIRECTION('ref_axis',(0.999999764561659,0.,-0.000686204507920341));
#602=DIRECTION('',(0.,0.,-1.));
#603=DIRECTION('',(-1.,0.,0.));
#604=DIRECTION('center_axis',(0.,1.,0.));
#605=DIRECTION('ref_axis',(-1.,0.,0.));
#606=DIRECTION('',(1.,0.,0.));
#607=DIRECTION('',(0.,0.,1.));
#608=DIRECTION('',(0.,0.,1.));
#609=DIRECTION('',(-5.53972562213935E-8,0.,-0.999999999999998));
#610=DIRECTION('',(1.,0.,0.));
#611=DIRECTION('',(0.,0.,1.));
#612=DIRECTION('center_axis',(0.,-1.,0.));
#613=DIRECTION('ref_axis',(0.999999764561659,0.,-0.000686204507920341));
#614=DIRECTION('center_axis',(1.,0.,0.));
#615=DIRECTION('ref_axis',(0.,0.,-1.));
#616=DIRECTION('',(0.,1.,0.));
#617=DIRECTION('',(0.,1.,0.));
#618=DIRECTION('center_axis',(0.,1.,0.));
#619=DIRECTION('ref_axis',(0.000343102274167074,0.,0.999999941140413));
#620=DIRECTION('',(0.,1.,0.));
#621=DIRECTION('center_axis',(-0.999999999999998,0.,5.53972562213935E-8));
#622=DIRECTION('ref_axis',(5.53972562213935E-8,0.,0.999999999999998));
#623=DIRECTION('',(0.,1.,0.));
#624=DIRECTION('center_axis',(0.,0.,-1.));
#625=DIRECTION('ref_axis',(-1.,0.,0.));
#626=DIRECTION('center_axis',(1.,0.,0.));
#627=DIRECTION('ref_axis',(0.,1.,0.));
#628=DIRECTION('',(0.,-1.,0.));
#629=DIRECTION('',(0.,0.,1.));
#630=DIRECTION('center_axis',(-1.,0.,0.));
#631=DIRECTION('ref_axis',(0.,-1.,0.));
#632=DIRECTION('',(0.,1.,0.));
#633=DIRECTION('',(0.,0.,1.));
#634=DIRECTION('center_axis',(0.,-1.,0.));
#635=DIRECTION('ref_axis',(1.,0.,0.));
#636=DIRECTION('',(-1.,0.,0.));
#637=DIRECTION('center_axis',(0.,1.,0.));
#638=DIRECTION('ref_axis',(-1.,0.,0.));
#639=DIRECTION('',(0.,0.,-1.));
#640=DIRECTION('',(1.,0.,0.));
#641=DIRECTION('center_axis',(-1.,0.,0.));
#642=DIRECTION('ref_axis',(0.,-1.,0.));
#643=DIRECTION('',(0.,1.,0.));
#644=DIRECTION('center_axis',(0.,0.,1.));
#645=DIRECTION('ref_axis',(1.,0.,0.));
#646=DIRECTION('center_axis',(0.,0.,1.));
#647=DIRECTION('ref_axis',(1.,0.,0.));
#648=CARTESIAN_POINT('',(0.,0.,0.));
#649=CARTESIAN_POINT('Origin',(89.,-5.,2.));
#650=CARTESIAN_POINT('',(89.,62.,0.));
#651=CARTESIAN_POINT('',(89.,62.,72.));
#652=CARTESIAN_POINT('',(89.,62.,2.));
#653=CARTESIAN_POINT('',(89.,-5.,72.));
#654=CARTESIAN_POINT('',(89.,-5.,72.));
#655=CARTESIAN_POINT('',(89.,-5.,0.));
#656=CARTESIAN_POINT('',(89.,-5.,2.));
#657=CARTESIAN_POINT('',(89.,-5.,0.));
#658=CARTESIAN_POINT('Origin',(89.,38.5,15.));
#659=CARTESIAN_POINT('',(0.,38.5,15.));
#660=CARTESIAN_POINT('',(0.,18.5,15.));
#661=CARTESIAN_POINT('',(0.,19.25,15.));
#662=CARTESIAN_POINT('',(-5.,38.5,15.));
#663=CARTESIAN_POINT('',(89.,38.5,15.));
#664=CARTESIAN_POINT('',(-5.,18.5,15.));
#665=CARTESIAN_POINT('',(-5.,50.25,15.));
#666=CARTESIAN_POINT('',(89.,18.5,15.));
#667=CARTESIAN_POINT('Origin',(89.,18.5,15.));
#668=CARTESIAN_POINT('',(0.,18.5,23.0000003427267));
#669=CARTESIAN_POINT('',(0.,18.5,8.5));
#670=CARTESIAN_POINT('',(-5.,18.5,23.0000003427267));
#671=CARTESIAN_POINT('',(-5.,18.5,8.5));
#672=CARTESIAN_POINT('',(89.,18.5,23.0000003427267));
#673=CARTESIAN_POINT('Origin',(89.,18.5,23.0000003427267));
#674=CARTESIAN_POINT('',(0.,38.5,23.0000003427267));
#675=CARTESIAN_POINT('',(0.,9.25,23.0000003427267));
#676=CARTESIAN_POINT('',(-5.,38.5,23.0000003427267));
#677=CARTESIAN_POINT('',(-5.,40.25,23.0000003427267));
#678=CARTESIAN_POINT('',(89.,38.5,23.0000003427267));
#679=CARTESIAN_POINT('Origin',(89.,38.5,23.0000003427267));
#680=CARTESIAN_POINT('',(0.,38.5,12.5000001713634));
#681=CARTESIAN_POINT('',(-5.,38.5,12.5000001713634));
#682=CARTESIAN_POINT('Origin',(-2.5,-2.5,72.));
#683=CARTESIAN_POINT('',(-1.75,-2.5,72.));
#684=CARTESIAN_POINT('Origin',(-2.5,-2.5,72.));
#685=CARTESIAN_POINT('',(-1.75,-2.5,63.));
#686=CARTESIAN_POINT('',(-1.75,-2.5,72.));
#687=CARTESIAN_POINT('Origin',(-2.5,-2.5,63.));
#688=CARTESIAN_POINT('Origin',(-2.5,-2.5,63.));
#689=CARTESIAN_POINT('Origin',(86.5,-2.5,72.));
#690=CARTESIAN_POINT('',(87.25,-2.5,72.));
#691=CARTESIAN_POINT('Origin',(86.5,-2.5,72.));
#692=CARTESIAN_POINT('',(87.25,-2.5,63.));
#693=CARTESIAN_POINT('',(87.25,-2.5,72.));
#694=CARTESIAN_POINT('Origin',(86.5,-2.5,63.));
#695=CARTESIAN_POINT('Origin',(86.5,-2.5,63.));
#696=CARTESIAN_POINT('Origin',(-2.5,59.5,72.));
#697=CARTESIAN_POINT('',(-1.75,59.5,72.));
#698=CARTESIAN_POINT('Origin',(-2.5,59.5,72.));
#699=CARTESIAN_POINT('',(-1.75,59.5,63.));
#700=CARTESIAN_POINT('',(-1.75,59.5,72.));
#701=CARTESIAN_POINT('Origin',(-2.5,59.5,63.));
#702=CARTESIAN_POINT('Origin',(-2.5,59.5,63.));
#703=CARTESIAN_POINT('Origin',(86.5,59.5,72.));
#704=CARTESIAN_POINT('',(87.25,59.5,72.));
#705=CARTESIAN_POINT('Origin',(86.5,59.5,72.));
#706=CARTESIAN_POINT('',(87.25,59.5,63.));
#707=CARTESIAN_POINT('',(87.25,59.5,72.));
#708=CARTESIAN_POINT('Origin',(86.5,59.5,63.));
#709=CARTESIAN_POINT('Origin',(86.5,59.5,63.));
#710=CARTESIAN_POINT('Origin',(42.,28.5,72.));
#711=CARTESIAN_POINT('',(-5.,62.,72.));
#712=CARTESIAN_POINT('',(-5.,-5.,72.));
#713=CARTESIAN_POINT('',(-5.,62.,72.));
#714=CARTESIAN_POINT('',(-5.,-5.,72.));
#715=CARTESIAN_POINT('',(89.,62.,72.));
#716=CARTESIAN_POINT('',(0.,57.,72.));
#717=CARTESIAN_POINT('',(84.,57.,72.));
#718=CARTESIAN_POINT('',(84.,57.,72.));
#719=CARTESIAN_POINT('',(84.,0.,72.));
#720=CARTESIAN_POINT('',(84.,0.,72.));
#721=CARTESIAN_POINT('',(0.,0.,72.));
#722=CARTESIAN_POINT('',(0.,0.,72.));
#723=CARTESIAN_POINT('',(0.,57.,72.));
#724=CARTESIAN_POINT('Origin',(-5.,-5.,2.));
#725=CARTESIAN_POINT('',(-5.,-5.,0.));
#726=CARTESIAN_POINT('',(-5.,-5.,2.));
#727=CARTESIAN_POINT('',(-5.,-5.,0.));
#728=CARTESIAN_POINT('',(69.000000221589,-5.,12.));
#729=CARTESIAN_POINT('',(69.0000009417534,-5.,25.0000004321339));
#730=CARTESIAN_POINT('',(68.9999999446026,-5.,6.99999795030153));
#731=CARTESIAN_POINT('',(77.,-5.,24.9972556141021));
#732=CARTESIAN_POINT('Origin',(73.0000009417534,-5.,25.0000004321338));
#733=CARTESIAN_POINT('',(77.,-5.,12.));
#734=CARTESIAN_POINT('',(77.,-5.,13.4986278070511));
#735=CARTESIAN_POINT('',(36.,-5.,12.));
#736=CARTESIAN_POINT('Origin',(84.,0.,2.));
#737=CARTESIAN_POINT('',(0.,0.,2.));
#738=CARTESIAN_POINT('',(84.,0.,2.));
#739=CARTESIAN_POINT('',(0.,0.,2.));
#740=CARTESIAN_POINT('',(0.,0.,2.));
#741=CARTESIAN_POINT('',(84.,0.,2.));
#742=CARTESIAN_POINT('',(69.0000009417534,0.,25.0000004321339));
#743=CARTESIAN_POINT('',(69.000000221589,0.,12.));
#744=CARTESIAN_POINT('',(68.9999999446028,0.,7.00000041547943));
#745=CARTESIAN_POINT('',(77.,0.,12.));
#746=CARTESIAN_POINT('',(80.5,0.,12.));
#747=CARTESIAN_POINT('',(77.,0.,24.9972556141021));
#748=CARTESIAN_POINT('',(77.,0.,13.4986278070511));
#749=CARTESIAN_POINT('Origin',(73.0000009417534,0.,25.0000004321338));
#750=CARTESIAN_POINT('Origin',(77.,-5.,24.9972556141021));
#751=CARTESIAN_POINT('',(77.,-5.,12.));
#752=CARTESIAN_POINT('',(77.,-5.,24.9972556141021));
#753=CARTESIAN_POINT('Origin',(73.0000009417534,-5.,25.0000004321338));
#754=CARTESIAN_POINT('',(69.0000009417534,-5.,25.0000004321339));
#755=CARTESIAN_POINT('Origin',(69.000000221589,-5.,12.));
#756=CARTESIAN_POINT('',(69.000000221589,-5.,12.));
#757=CARTESIAN_POINT('Origin',(77.,-5.,12.));
#758=CARTESIAN_POINT('Origin',(0.,0.,2.));
#759=CARTESIAN_POINT('',(0.,57.,2.));
#760=CARTESIAN_POINT('',(0.,57.,2.));
#761=CARTESIAN_POINT('',(0.,57.,2.));
#762=CARTESIAN_POINT('Origin',(84.,57.,2.));
#763=CARTESIAN_POINT('',(84.,57.,2.));
#764=CARTESIAN_POINT('',(84.,0.,2.));
#765=CARTESIAN_POINT('',(84.,57.,2.));
#766=CARTESIAN_POINT('Origin',(0.,57.,2.));
#767=CARTESIAN_POINT('',(84.,57.,2.));
#768=CARTESIAN_POINT('Origin',(89.,62.,2.));
#769=CARTESIAN_POINT('',(-5.,62.,0.));
#770=CARTESIAN_POINT('',(-5.,62.,2.));
#771=CARTESIAN_POINT('',(89.,62.,0.));
#772=CARTESIAN_POINT('Origin',(-5.,62.,2.));
#773=CARTESIAN_POINT('',(-5.,62.,0.));
#774=CARTESIAN_POINT('Origin',(42.,28.5,2.));
#775=CARTESIAN_POINT('Origin',(42.,28.5,0.));
#776=UNCERTAINTY_MEASURE_WITH_UNIT(LENGTH_MEASURE(0.01),#780,
'DISTANCE_ACCURACY_VALUE',
'Maximum model space distance between geometric entities at asserted c
onnectivities');
#777=UNCERTAINTY_MEASURE_WITH_UNIT(LENGTH_MEASURE(0.01),#780,
'DISTANCE_ACCURACY_VALUE',
'Maximum model space distance between geometric entities at asserted c
onnectivities');
#778=(
GEOMETRIC_REPRESENTATION_CONTEXT(3)
GLOBAL_UNCERTAINTY_ASSIGNED_CONTEXT((#776))
GLOBAL_UNIT_ASSIGNED_CONTEXT((#780,#782,#783))
REPRESENTATION_CONTEXT('','3D')
);
#779=(
GEOMETRIC_REPRESENTATION_CONTEXT(3)
GLOBAL_UNCERTAINTY_ASSIGNED_CONTEXT((#777))
GLOBAL_UNIT_ASSIGNED_CONTEXT((#780,#782,#783))
REPRESENTATION_CONTEXT('','3D')
);
#780=(
LENGTH_UNIT()
NAMED_UNIT(*)
SI_UNIT(.MILLI.,.METRE.)
);
#781=(
LENGTH_UNIT()
NAMED_UNIT(*)
SI_UNIT($,.METRE.)
);
#782=(
NAMED_UNIT(*)
PLANE_ANGLE_UNIT()
SI_UNIT($,.RADIAN.)
);
#783=(
NAMED_UNIT(*)
SI_UNIT($,.STERADIAN.)
SOLID_ANGLE_UNIT()
);
#784=SHAPE_DEFINITION_REPRESENTATION(#785,#786);
#785=PRODUCT_DEFINITION_SHAPE('',$,#788);
#786=SHAPE_REPRESENTATION('',(#484),#778);
#787=PRODUCT_DEFINITION_CONTEXT('part definition',#792,'design');
#788=PRODUCT_DEFINITION('contenitore_jeopardy',
'contenitore_jeopardy v4',#789,#787);
#789=PRODUCT_DEFINITION_FORMATION('',$,#794);
#790=PRODUCT_RELATED_PRODUCT_CATEGORY('contenitore_jeopardy v4',
'contenitore_jeopardy v4',(#794));
#791=APPLICATION_PROTOCOL_DEFINITION('international standard',
'automotive_design',2009,#792);
#792=APPLICATION_CONTEXT(
'Core Data for Automotive Mechanical Design Process');
#793=PRODUCT_CONTEXT('part definition',#792,'mechanical');
#794=PRODUCT('contenitore_jeopardy','contenitore_jeopardy v4',$,(#793));
#795=PRESENTATION_STYLE_ASSIGNMENT((#796));
#796=SURFACE_STYLE_USAGE(.BOTH.,#797);
#797=SURFACE_SIDE_STYLE('',(#798));
#798=SURFACE_STYLE_FILL_AREA(#799);
#799=FILL_AREA_STYLE('Acciaio - Satinato',(#800));
#800=FILL_AREA_STYLE_COLOUR('Acciaio - Satinato',#801);
#801=COLOUR_RGB('Acciaio - Satinato',0.627450980392157,0.627450980392157,
0.627450980392157);
ENDSEC;
END-ISO-10303-21;
