ISO-10303-21;
HEADER;
/* Generated by software containing ST-Developer
 * from STEP Tools, Inc. (www.steptools.com) 
 */

FILE_DESCRIPTION(
/* description */ (''),
/* implementation_level */ '2;1');

FILE_NAME(
/* name */ 'QuizBox_lid.step',
/* time_stamp */ '2026-05-26T10:36:09+02:00',
/* author */ (''),
/* organization */ (''),
/* preprocessor_version */ 'ST-DEVELOPER v20.1',
/* originating_system */ 'Autodesk Translation Framework v15.8.0.0',
/* authorisation */ '');

FILE_SCHEMA (('AUTOMOTIVE_DESIGN { 1 0 10303 214 3 1 1 }'));
ENDSEC;

DATA;
#10=MECHANICAL_DESIGN_GEOMETRIC_PRESENTATION_REPRESENTATION('',(#13),#1991);
#11=SHAPE_REPRESENTATION_RELATIONSHIP('SRR','None',#1998,#12);
#12=ADVANCED_BREP_SHAPE_REPRESENTATION('',(#14),#1990);
#13=STYLED_ITEM('',(#2007),#14);
#14=MANIFOLD_SOLID_BREP('Corpo1',#1231);
#15=FACE_BOUND('',#166,.T.);
#16=FACE_BOUND('',#169,.T.);
#17=FACE_BOUND('',#172,.T.);
#18=FACE_BOUND('',#175,.T.);
#19=FACE_BOUND('',#193,.T.);
#20=FACE_BOUND('',#196,.T.);
#21=FACE_BOUND('',#199,.T.);
#22=FACE_BOUND('',#202,.T.);
#23=FACE_BOUND('',#205,.T.);
#24=FACE_BOUND('',#208,.T.);
#25=FACE_BOUND('',#222,.T.);
#26=FACE_BOUND('',#223,.T.);
#27=FACE_BOUND('',#224,.T.);
#28=FACE_BOUND('',#225,.T.);
#29=FACE_BOUND('',#226,.T.);
#30=FACE_BOUND('',#227,.T.);
#31=FACE_BOUND('',#228,.T.);
#32=FACE_BOUND('',#229,.T.);
#33=FACE_BOUND('',#246,.T.);
#34=FACE_BOUND('',#247,.T.);
#35=FACE_BOUND('',#248,.T.);
#36=FACE_BOUND('',#249,.T.);
#37=FACE_BOUND('',#250,.T.);
#38=FACE_BOUND('',#252,.T.);
#39=FACE_BOUND('',#253,.T.);
#40=FACE_BOUND('',#254,.T.);
#41=FACE_BOUND('',#255,.T.);
#42=FACE_BOUND('',#256,.T.);
#43=FACE_BOUND('',#257,.T.);
#44=FACE_BOUND('',#258,.T.);
#45=FACE_BOUND('',#259,.T.);
#46=PLANE('',#1248);
#47=PLANE('',#1253);
#48=PLANE('',#1258);
#49=PLANE('',#1263);
#50=PLANE('',#1273);
#51=PLANE('',#1274);
#52=PLANE('',#1275);
#53=PLANE('',#1276);
#54=PLANE('',#1277);
#55=PLANE('',#1278);
#56=PLANE('',#1279);
#57=PLANE('',#1280);
#58=PLANE('',#1281);
#59=PLANE('',#1282);
#60=PLANE('',#1283);
#61=PLANE('',#1284);
#62=PLANE('',#1285);
#63=PLANE('',#1286);
#64=PLANE('',#1287);
#65=PLANE('',#1288);
#66=PLANE('',#1289);
#67=PLANE('',#1290);
#68=PLANE('',#1291);
#69=PLANE('',#1292);
#70=PLANE('',#1293);
#71=PLANE('',#1294);
#72=PLANE('',#1295);
#73=PLANE('',#1296);
#74=PLANE('',#1297);
#75=PLANE('',#1301);
#76=PLANE('',#1305);
#77=PLANE('',#1309);
#78=PLANE('',#1313);
#79=PLANE('',#1314);
#80=PLANE('',#1315);
#81=PLANE('',#1316);
#82=PLANE('',#1317);
#83=PLANE('',#1318);
#84=PLANE('',#1319);
#85=PLANE('',#1320);
#86=PLANE('',#1321);
#87=PLANE('',#1322);
#88=PLANE('',#1323);
#89=PLANE('',#1324);
#90=PLANE('',#1325);
#91=PLANE('',#1326);
#92=PLANE('',#1327);
#93=PLANE('',#1328);
#94=PLANE('',#1329);
#95=PLANE('',#1330);
#96=PLANE('',#1331);
#97=PLANE('',#1332);
#98=PLANE('',#1333);
#99=FACE_OUTER_BOUND('',#164,.T.);
#100=FACE_OUTER_BOUND('',#165,.T.);
#101=FACE_OUTER_BOUND('',#167,.T.);
#102=FACE_OUTER_BOUND('',#168,.T.);
#103=FACE_OUTER_BOUND('',#170,.T.);
#104=FACE_OUTER_BOUND('',#171,.T.);
#105=FACE_OUTER_BOUND('',#173,.T.);
#106=FACE_OUTER_BOUND('',#174,.T.);
#107=FACE_OUTER_BOUND('',#176,.T.);
#108=FACE_OUTER_BOUND('',#177,.T.);
#109=FACE_OUTER_BOUND('',#178,.T.);
#110=FACE_OUTER_BOUND('',#179,.T.);
#111=FACE_OUTER_BOUND('',#180,.T.);
#112=FACE_OUTER_BOUND('',#181,.T.);
#113=FACE_OUTER_BOUND('',#182,.T.);
#114=FACE_OUTER_BOUND('',#183,.T.);
#115=FACE_OUTER_BOUND('',#184,.T.);
#116=FACE_OUTER_BOUND('',#185,.T.);
#117=FACE_OUTER_BOUND('',#186,.T.);
#118=FACE_OUTER_BOUND('',#187,.T.);
#119=FACE_OUTER_BOUND('',#188,.T.);
#120=FACE_OUTER_BOUND('',#189,.T.);
#121=FACE_OUTER_BOUND('',#190,.T.);
#122=FACE_OUTER_BOUND('',#191,.T.);
#123=FACE_OUTER_BOUND('',#192,.T.);
#124=FACE_OUTER_BOUND('',#194,.T.);
#125=FACE_OUTER_BOUND('',#195,.T.);
#126=FACE_OUTER_BOUND('',#197,.T.);
#127=FACE_OUTER_BOUND('',#198,.T.);
#128=FACE_OUTER_BOUND('',#200,.T.);
#129=FACE_OUTER_BOUND('',#201,.T.);
#130=FACE_OUTER_BOUND('',#203,.T.);
#131=FACE_OUTER_BOUND('',#204,.T.);
#132=FACE_OUTER_BOUND('',#206,.T.);
#133=FACE_OUTER_BOUND('',#207,.T.);
#134=FACE_OUTER_BOUND('',#209,.T.);
#135=FACE_OUTER_BOUND('',#210,.T.);
#136=FACE_OUTER_BOUND('',#211,.T.);
#137=FACE_OUTER_BOUND('',#212,.T.);
#138=FACE_OUTER_BOUND('',#213,.T.);
#139=FACE_OUTER_BOUND('',#214,.T.);
#140=FACE_OUTER_BOUND('',#215,.T.);
#141=FACE_OUTER_BOUND('',#216,.T.);
#142=FACE_OUTER_BOUND('',#217,.T.);
#143=FACE_OUTER_BOUND('',#218,.T.);
#144=FACE_OUTER_BOUND('',#219,.T.);
#145=FACE_OUTER_BOUND('',#220,.T.);
#146=FACE_OUTER_BOUND('',#221,.T.);
#147=FACE_OUTER_BOUND('',#230,.T.);
#148=FACE_OUTER_BOUND('',#231,.T.);
#149=FACE_OUTER_BOUND('',#232,.T.);
#150=FACE_OUTER_BOUND('',#233,.T.);
#151=FACE_OUTER_BOUND('',#234,.T.);
#152=FACE_OUTER_BOUND('',#235,.T.);
#153=FACE_OUTER_BOUND('',#236,.T.);
#154=FACE_OUTER_BOUND('',#237,.T.);
#155=FACE_OUTER_BOUND('',#238,.T.);
#156=FACE_OUTER_BOUND('',#239,.T.);
#157=FACE_OUTER_BOUND('',#240,.T.);
#158=FACE_OUTER_BOUND('',#241,.T.);
#159=FACE_OUTER_BOUND('',#242,.T.);
#160=FACE_OUTER_BOUND('',#243,.T.);
#161=FACE_OUTER_BOUND('',#244,.T.);
#162=FACE_OUTER_BOUND('',#245,.T.);
#163=FACE_OUTER_BOUND('',#251,.T.);
#164=EDGE_LOOP('',(#830,#831,#832,#833));
#165=EDGE_LOOP('',(#834));
#166=EDGE_LOOP('',(#835));
#167=EDGE_LOOP('',(#836,#837,#838,#839));
#168=EDGE_LOOP('',(#840));
#169=EDGE_LOOP('',(#841));
#170=EDGE_LOOP('',(#842,#843,#844,#845));
#171=EDGE_LOOP('',(#846));
#172=EDGE_LOOP('',(#847));
#173=EDGE_LOOP('',(#848,#849,#850,#851));
#174=EDGE_LOOP('',(#852));
#175=EDGE_LOOP('',(#853));
#176=EDGE_LOOP('',(#854,#855,#856,#857));
#177=EDGE_LOOP('',(#858,#859,#860,#861));
#178=EDGE_LOOP('',(#862,#863,#864,#865));
#179=EDGE_LOOP('',(#866,#867,#868,#869));
#180=EDGE_LOOP('',(#870,#871,#872,#873));
#181=EDGE_LOOP('',(#874,#875,#876,#877));
#182=EDGE_LOOP('',(#878,#879,#880,#881));
#183=EDGE_LOOP('',(#882,#883,#884,#885));
#184=EDGE_LOOP('',(#886,#887,#888,#889));
#185=EDGE_LOOP('',(#890,#891,#892,#893));
#186=EDGE_LOOP('',(#894,#895,#896,#897));
#187=EDGE_LOOP('',(#898,#899,#900,#901));
#188=EDGE_LOOP('',(#902,#903,#904,#905));
#189=EDGE_LOOP('',(#906,#907,#908,#909));
#190=EDGE_LOOP('',(#910,#911,#912,#913));
#191=EDGE_LOOP('',(#914,#915,#916,#917));
#192=EDGE_LOOP('',(#918,#919,#920,#921));
#193=EDGE_LOOP('',(#922,#923,#924,#925));
#194=EDGE_LOOP('',(#926,#927,#928,#929));
#195=EDGE_LOOP('',(#930,#931,#932,#933));
#196=EDGE_LOOP('',(#934,#935,#936,#937));
#197=EDGE_LOOP('',(#938,#939,#940,#941));
#198=EDGE_LOOP('',(#942,#943,#944,#945));
#199=EDGE_LOOP('',(#946,#947,#948,#949));
#200=EDGE_LOOP('',(#950,#951,#952,#953));
#201=EDGE_LOOP('',(#954,#955,#956,#957));
#202=EDGE_LOOP('',(#958,#959,#960,#961));
#203=EDGE_LOOP('',(#962,#963,#964,#965));
#204=EDGE_LOOP('',(#966,#967,#968,#969));
#205=EDGE_LOOP('',(#970,#971,#972,#973));
#206=EDGE_LOOP('',(#974,#975,#976,#977));
#207=EDGE_LOOP('',(#978,#979,#980,#981));
#208=EDGE_LOOP('',(#982,#983,#984,#985));
#209=EDGE_LOOP('',(#986,#987,#988,#989));
#210=EDGE_LOOP('',(#990,#991,#992,#993,#994,#995,#996,#997));
#211=EDGE_LOOP('',(#998,#999,#1000,#1001));
#212=EDGE_LOOP('',(#1002));
#213=EDGE_LOOP('',(#1003,#1004,#1005,#1006));
#214=EDGE_LOOP('',(#1007));
#215=EDGE_LOOP('',(#1008,#1009,#1010,#1011));
#216=EDGE_LOOP('',(#1012));
#217=EDGE_LOOP('',(#1013,#1014,#1015,#1016));
#218=EDGE_LOOP('',(#1017));
#219=EDGE_LOOP('',(#1018,#1019,#1020,#1021));
#220=EDGE_LOOP('',(#1022,#1023,#1024,#1025));
#221=EDGE_LOOP('',(#1026,#1027,#1028,#1029,#1030,#1031,#1032,#1033));
#222=EDGE_LOOP('',(#1034));
#223=EDGE_LOOP('',(#1035));
#224=EDGE_LOOP('',(#1036));
#225=EDGE_LOOP('',(#1037));
#226=EDGE_LOOP('',(#1038,#1039,#1040,#1041));
#227=EDGE_LOOP('',(#1042,#1043,#1044,#1045));
#228=EDGE_LOOP('',(#1046,#1047,#1048,#1049));
#229=EDGE_LOOP('',(#1050,#1051,#1052,#1053));
#230=EDGE_LOOP('',(#1054,#1055,#1056,#1057));
#231=EDGE_LOOP('',(#1058,#1059,#1060,#1061));
#232=EDGE_LOOP('',(#1062,#1063,#1064,#1065));
#233=EDGE_LOOP('',(#1066,#1067,#1068,#1069));
#234=EDGE_LOOP('',(#1070,#1071,#1072,#1073));
#235=EDGE_LOOP('',(#1074,#1075,#1076,#1077,#1078,#1079));
#236=EDGE_LOOP('',(#1080,#1081,#1082,#1083));
#237=EDGE_LOOP('',(#1084,#1085,#1086,#1087,#1088,#1089));
#238=EDGE_LOOP('',(#1090,#1091,#1092,#1093));
#239=EDGE_LOOP('',(#1094,#1095,#1096,#1097));
#240=EDGE_LOOP('',(#1098,#1099,#1100,#1101));
#241=EDGE_LOOP('',(#1102,#1103,#1104,#1105));
#242=EDGE_LOOP('',(#1106,#1107,#1108,#1109));
#243=EDGE_LOOP('',(#1110,#1111,#1112,#1113));
#244=EDGE_LOOP('',(#1114,#1115,#1116,#1117));
#245=EDGE_LOOP('',(#1118,#1119,#1120,#1121));
#246=EDGE_LOOP('',(#1122,#1123,#1124,#1125));
#247=EDGE_LOOP('',(#1126));
#248=EDGE_LOOP('',(#1127));
#249=EDGE_LOOP('',(#1128));
#250=EDGE_LOOP('',(#1129));
#251=EDGE_LOOP('',(#1130,#1131,#1132,#1133));
#252=EDGE_LOOP('',(#1134,#1135,#1136,#1137));
#253=EDGE_LOOP('',(#1138,#1139,#1140,#1141));
#254=EDGE_LOOP('',(#1142,#1143,#1144,#1145));
#255=EDGE_LOOP('',(#1146,#1147,#1148,#1149));
#256=EDGE_LOOP('',(#1150));
#257=EDGE_LOOP('',(#1151));
#258=EDGE_LOOP('',(#1152));
#259=EDGE_LOOP('',(#1153));
#260=LINE('',#1657,#398);
#261=LINE('',#1666,#399);
#262=LINE('',#1675,#400);
#263=LINE('',#1684,#401);
#264=LINE('',#1691,#402);
#265=LINE('',#1695,#403);
#266=LINE('',#1699,#404);
#267=LINE('',#1703,#405);
#268=LINE('',#1708,#406);
#269=LINE('',#1710,#407);
#270=LINE('',#1712,#408);
#271=LINE('',#1713,#409);
#272=LINE('',#1717,#410);
#273=LINE('',#1719,#411);
#274=LINE('',#1721,#412);
#275=LINE('',#1722,#413);
#276=LINE('',#1724,#414);
#277=LINE('',#1725,#415);
#278=LINE('',#1727,#416);
#279=LINE('',#1728,#417);
#280=LINE('',#1732,#418);
#281=LINE('',#1734,#419);
#282=LINE('',#1736,#420);
#283=LINE('',#1737,#421);
#284=LINE('',#1741,#422);
#285=LINE('',#1743,#423);
#286=LINE('',#1745,#424);
#287=LINE('',#1746,#425);
#288=LINE('',#1748,#426);
#289=LINE('',#1749,#427);
#290=LINE('',#1751,#428);
#291=LINE('',#1752,#429);
#292=LINE('',#1756,#430);
#293=LINE('',#1758,#431);
#294=LINE('',#1760,#432);
#295=LINE('',#1761,#433);
#296=LINE('',#1765,#434);
#297=LINE('',#1767,#435);
#298=LINE('',#1769,#436);
#299=LINE('',#1770,#437);
#300=LINE('',#1772,#438);
#301=LINE('',#1773,#439);
#302=LINE('',#1775,#440);
#303=LINE('',#1776,#441);
#304=LINE('',#1780,#442);
#305=LINE('',#1782,#443);
#306=LINE('',#1784,#444);
#307=LINE('',#1785,#445);
#308=LINE('',#1788,#446);
#309=LINE('',#1790,#447);
#310=LINE('',#1791,#448);
#311=LINE('',#1795,#449);
#312=LINE('',#1796,#450);
#313=LINE('',#1797,#451);
#314=LINE('',#1799,#452);
#315=LINE('',#1800,#453);
#316=LINE('',#1804,#454);
#317=LINE('',#1806,#455);
#318=LINE('',#1808,#456);
#319=LINE('',#1809,#457);
#320=LINE('',#1812,#458);
#321=LINE('',#1814,#459);
#322=LINE('',#1815,#460);
#323=LINE('',#1819,#461);
#324=LINE('',#1820,#462);
#325=LINE('',#1821,#463);
#326=LINE('',#1823,#464);
#327=LINE('',#1824,#465);
#328=LINE('',#1828,#466);
#329=LINE('',#1830,#467);
#330=LINE('',#1832,#468);
#331=LINE('',#1833,#469);
#332=LINE('',#1836,#470);
#333=LINE('',#1838,#471);
#334=LINE('',#1839,#472);
#335=LINE('',#1843,#473);
#336=LINE('',#1844,#474);
#337=LINE('',#1845,#475);
#338=LINE('',#1847,#476);
#339=LINE('',#1848,#477);
#340=LINE('',#1852,#478);
#341=LINE('',#1854,#479);
#342=LINE('',#1856,#480);
#343=LINE('',#1858,#481);
#344=LINE('',#1860,#482);
#345=LINE('',#1862,#483);
#346=LINE('',#1864,#484);
#347=LINE('',#1865,#485);
#348=LINE('',#1870,#486);
#349=LINE('',#1877,#487);
#350=LINE('',#1884,#488);
#351=LINE('',#1891,#489);
#352=LINE('',#1897,#490);
#353=LINE('',#1899,#491);
#354=LINE('',#1901,#492);
#355=LINE('',#1902,#493);
#356=LINE('',#1905,#494);
#357=LINE('',#1907,#495);
#358=LINE('',#1908,#496);
#359=LINE('',#1911,#497);
#360=LINE('',#1913,#498);
#361=LINE('',#1915,#499);
#362=LINE('',#1916,#500);
#363=LINE('',#1918,#501);
#364=LINE('',#1919,#502);
#365=LINE('',#1921,#503);
#366=LINE('',#1923,#504);
#367=LINE('',#1924,#505);
#368=LINE('',#1927,#506);
#369=LINE('',#1928,#507);
#370=LINE('',#1931,#508);
#371=LINE('',#1932,#509);
#372=LINE('',#1934,#510);
#373=LINE('',#1939,#511);
#374=LINE('',#1940,#512);
#375=LINE('',#1941,#513);
#376=LINE('',#1944,#514);
#377=LINE('',#1945,#515);
#378=LINE('',#1948,#516);
#379=LINE('',#1949,#517);
#380=LINE('',#1951,#518);
#381=LINE('',#1954,#519);
#382=LINE('',#1955,#520);
#383=LINE('',#1958,#521);
#384=LINE('',#1959,#522);
#385=LINE('',#1961,#523);
#386=LINE('',#1965,#524);
#387=LINE('',#1967,#525);
#388=LINE('',#1969,#526);
#389=LINE('',#1970,#527);
#390=LINE('',#1973,#528);
#391=LINE('',#1975,#529);
#392=LINE('',#1976,#530);
#393=LINE('',#1979,#531);
#394=LINE('',#1981,#532);
#395=LINE('',#1982,#533);
#396=LINE('',#1984,#534);
#397=LINE('',#1985,#535);
#398=VECTOR('',#1340,2.15);
#399=VECTOR('',#1351,2.15);
#400=VECTOR('',#1362,2.15);
#401=VECTOR('',#1373,2.15);
#402=VECTOR('',#1382,0.749999999999993);
#403=VECTOR('',#1387,0.749999999999993);
#404=VECTOR('',#1392,0.749999999999993);
#405=VECTOR('',#1397,0.749999999999993);
#406=VECTOR('',#1402,10.);
#407=VECTOR('',#1403,10.);
#408=VECTOR('',#1404,10.);
#409=VECTOR('',#1405,10.);
#410=VECTOR('',#1408,10.);
#411=VECTOR('',#1409,10.);
#412=VECTOR('',#1410,10.);
#413=VECTOR('',#1411,10.);
#414=VECTOR('',#1414,10.);
#415=VECTOR('',#1415,10.);
#416=VECTOR('',#1418,10.);
#417=VECTOR('',#1419,10.);
#418=VECTOR('',#1422,10.);
#419=VECTOR('',#1423,10.);
#420=VECTOR('',#1424,10.);
#421=VECTOR('',#1425,10.);
#422=VECTOR('',#1428,10.);
#423=VECTOR('',#1429,10.);
#424=VECTOR('',#1430,10.);
#425=VECTOR('',#1431,10.);
#426=VECTOR('',#1434,10.);
#427=VECTOR('',#1435,10.);
#428=VECTOR('',#1438,10.);
#429=VECTOR('',#1439,10.);
#430=VECTOR('',#1442,10.);
#431=VECTOR('',#1443,10.);
#432=VECTOR('',#1444,10.);
#433=VECTOR('',#1445,10.);
#434=VECTOR('',#1448,10.);
#435=VECTOR('',#1449,10.);
#436=VECTOR('',#1450,10.);
#437=VECTOR('',#1451,10.);
#438=VECTOR('',#1454,10.);
#439=VECTOR('',#1455,10.);
#440=VECTOR('',#1458,10.);
#441=VECTOR('',#1459,10.);
#442=VECTOR('',#1462,10.);
#443=VECTOR('',#1463,10.);
#444=VECTOR('',#1464,10.);
#445=VECTOR('',#1465,10.);
#446=VECTOR('',#1468,10.);
#447=VECTOR('',#1469,10.);
#448=VECTOR('',#1470,10.);
#449=VECTOR('',#1473,10.);
#450=VECTOR('',#1474,10.);
#451=VECTOR('',#1475,10.);
#452=VECTOR('',#1478,10.);
#453=VECTOR('',#1479,10.);
#454=VECTOR('',#1482,10.);
#455=VECTOR('',#1483,10.);
#456=VECTOR('',#1484,10.);
#457=VECTOR('',#1485,10.);
#458=VECTOR('',#1488,10.);
#459=VECTOR('',#1489,10.);
#460=VECTOR('',#1490,10.);
#461=VECTOR('',#1493,10.);
#462=VECTOR('',#1494,10.);
#463=VECTOR('',#1495,10.);
#464=VECTOR('',#1498,10.);
#465=VECTOR('',#1499,10.);
#466=VECTOR('',#1502,10.);
#467=VECTOR('',#1503,10.);
#468=VECTOR('',#1504,10.);
#469=VECTOR('',#1505,10.);
#470=VECTOR('',#1508,10.);
#471=VECTOR('',#1509,10.);
#472=VECTOR('',#1510,10.);
#473=VECTOR('',#1513,10.);
#474=VECTOR('',#1514,10.);
#475=VECTOR('',#1515,10.);
#476=VECTOR('',#1518,10.);
#477=VECTOR('',#1519,10.);
#478=VECTOR('',#1522,10.);
#479=VECTOR('',#1523,10.);
#480=VECTOR('',#1524,10.);
#481=VECTOR('',#1525,10.);
#482=VECTOR('',#1526,10.);
#483=VECTOR('',#1527,10.);
#484=VECTOR('',#1528,10.);
#485=VECTOR('',#1529,10.);
#486=VECTOR('',#1534,0.499999999999998);
#487=VECTOR('',#1543,0.5);
#488=VECTOR('',#1552,0.5);
#489=VECTOR('',#1561,0.499999999999998);
#490=VECTOR('',#1568,10.);
#491=VECTOR('',#1569,10.);
#492=VECTOR('',#1570,10.);
#493=VECTOR('',#1571,10.);
#494=VECTOR('',#1574,10.);
#495=VECTOR('',#1575,10.);
#496=VECTOR('',#1576,10.);
#497=VECTOR('',#1579,10.);
#498=VECTOR('',#1580,10.);
#499=VECTOR('',#1581,10.);
#500=VECTOR('',#1582,10.);
#501=VECTOR('',#1583,10.);
#502=VECTOR('',#1584,10.);
#503=VECTOR('',#1585,10.);
#504=VECTOR('',#1586,10.);
#505=VECTOR('',#1587,10.);
#506=VECTOR('',#1590,10.);
#507=VECTOR('',#1591,10.);
#508=VECTOR('',#1594,10.);
#509=VECTOR('',#1595,10.);
#510=VECTOR('',#1598,10.);
#511=VECTOR('',#1603,10.);
#512=VECTOR('',#1604,10.);
#513=VECTOR('',#1605,10.);
#514=VECTOR('',#1608,10.);
#515=VECTOR('',#1609,10.);
#516=VECTOR('',#1612,10.);
#517=VECTOR('',#1613,10.);
#518=VECTOR('',#1616,10.);
#519=VECTOR('',#1619,10.);
#520=VECTOR('',#1620,10.);
#521=VECTOR('',#1623,10.);
#522=VECTOR('',#1624,10.);
#523=VECTOR('',#1627,10.);
#524=VECTOR('',#1630,10.);
#525=VECTOR('',#1631,10.);
#526=VECTOR('',#1632,10.);
#527=VECTOR('',#1633,10.);
#528=VECTOR('',#1636,10.);
#529=VECTOR('',#1637,10.);
#530=VECTOR('',#1638,10.);
#531=VECTOR('',#1641,10.);
#532=VECTOR('',#1642,10.);
#533=VECTOR('',#1643,10.);
#534=VECTOR('',#1646,10.);
#535=VECTOR('',#1647,10.);
#536=CIRCLE('',#1246,2.15);
#537=CIRCLE('',#1247,2.15);
#538=CIRCLE('',#1249,0.749999999999993);
#539=CIRCLE('',#1251,2.15);
#540=CIRCLE('',#1252,2.15);
#541=CIRCLE('',#1254,0.749999999999993);
#542=CIRCLE('',#1256,2.15);
#543=CIRCLE('',#1257,2.15);
#544=CIRCLE('',#1259,0.749999999999993);
#545=CIRCLE('',#1261,2.15);
#546=CIRCLE('',#1262,2.15);
#547=CIRCLE('',#1264,0.749999999999993);
#548=CIRCLE('',#1266,0.749999999999993);
#549=CIRCLE('',#1268,0.749999999999993);
#550=CIRCLE('',#1270,0.749999999999993);
#551=CIRCLE('',#1272,0.749999999999993);
#552=CIRCLE('',#1299,0.499999999999998);
#553=CIRCLE('',#1300,0.499999999999998);
#554=CIRCLE('',#1303,0.5);
#555=CIRCLE('',#1304,0.5);
#556=CIRCLE('',#1307,0.5);
#557=CIRCLE('',#1308,0.5);
#558=CIRCLE('',#1311,0.499999999999998);
#559=CIRCLE('',#1312,0.499999999999998);
#560=VERTEX_POINT('',#1654);
#561=VERTEX_POINT('',#1656);
#562=VERTEX_POINT('',#1660);
#563=VERTEX_POINT('',#1663);
#564=VERTEX_POINT('',#1665);
#565=VERTEX_POINT('',#1669);
#566=VERTEX_POINT('',#1672);
#567=VERTEX_POINT('',#1674);
#568=VERTEX_POINT('',#1678);
#569=VERTEX_POINT('',#1681);
#570=VERTEX_POINT('',#1683);
#571=VERTEX_POINT('',#1687);
#572=VERTEX_POINT('',#1690);
#573=VERTEX_POINT('',#1694);
#574=VERTEX_POINT('',#1698);
#575=VERTEX_POINT('',#1702);
#576=VERTEX_POINT('',#1706);
#577=VERTEX_POINT('',#1707);
#578=VERTEX_POINT('',#1709);
#579=VERTEX_POINT('',#1711);
#580=VERTEX_POINT('',#1715);
#581=VERTEX_POINT('',#1716);
#582=VERTEX_POINT('',#1718);
#583=VERTEX_POINT('',#1720);
#584=VERTEX_POINT('',#1730);
#585=VERTEX_POINT('',#1731);
#586=VERTEX_POINT('',#1733);
#587=VERTEX_POINT('',#1735);
#588=VERTEX_POINT('',#1739);
#589=VERTEX_POINT('',#1740);
#590=VERTEX_POINT('',#1742);
#591=VERTEX_POINT('',#1744);
#592=VERTEX_POINT('',#1754);
#593=VERTEX_POINT('',#1755);
#594=VERTEX_POINT('',#1757);
#595=VERTEX_POINT('',#1759);
#596=VERTEX_POINT('',#1763);
#597=VERTEX_POINT('',#1764);
#598=VERTEX_POINT('',#1766);
#599=VERTEX_POINT('',#1768);
#600=VERTEX_POINT('',#1778);
#601=VERTEX_POINT('',#1779);
#602=VERTEX_POINT('',#1781);
#603=VERTEX_POINT('',#1783);
#604=VERTEX_POINT('',#1787);
#605=VERTEX_POINT('',#1789);
#606=VERTEX_POINT('',#1793);
#607=VERTEX_POINT('',#1794);
#608=VERTEX_POINT('',#1802);
#609=VERTEX_POINT('',#1803);
#610=VERTEX_POINT('',#1805);
#611=VERTEX_POINT('',#1807);
#612=VERTEX_POINT('',#1811);
#613=VERTEX_POINT('',#1813);
#614=VERTEX_POINT('',#1817);
#615=VERTEX_POINT('',#1818);
#616=VERTEX_POINT('',#1826);
#617=VERTEX_POINT('',#1827);
#618=VERTEX_POINT('',#1829);
#619=VERTEX_POINT('',#1831);
#620=VERTEX_POINT('',#1835);
#621=VERTEX_POINT('',#1837);
#622=VERTEX_POINT('',#1841);
#623=VERTEX_POINT('',#1842);
#624=VERTEX_POINT('',#1850);
#625=VERTEX_POINT('',#1851);
#626=VERTEX_POINT('',#1853);
#627=VERTEX_POINT('',#1855);
#628=VERTEX_POINT('',#1857);
#629=VERTEX_POINT('',#1859);
#630=VERTEX_POINT('',#1861);
#631=VERTEX_POINT('',#1863);
#632=VERTEX_POINT('',#1867);
#633=VERTEX_POINT('',#1869);
#634=VERTEX_POINT('',#1874);
#635=VERTEX_POINT('',#1876);
#636=VERTEX_POINT('',#1881);
#637=VERTEX_POINT('',#1883);
#638=VERTEX_POINT('',#1888);
#639=VERTEX_POINT('',#1890);
#640=VERTEX_POINT('',#1895);
#641=VERTEX_POINT('',#1896);
#642=VERTEX_POINT('',#1898);
#643=VERTEX_POINT('',#1900);
#644=VERTEX_POINT('',#1904);
#645=VERTEX_POINT('',#1906);
#646=VERTEX_POINT('',#1910);
#647=VERTEX_POINT('',#1912);
#648=VERTEX_POINT('',#1914);
#649=VERTEX_POINT('',#1917);
#650=VERTEX_POINT('',#1920);
#651=VERTEX_POINT('',#1922);
#652=VERTEX_POINT('',#1926);
#653=VERTEX_POINT('',#1930);
#654=VERTEX_POINT('',#1937);
#655=VERTEX_POINT('',#1938);
#656=VERTEX_POINT('',#1943);
#657=VERTEX_POINT('',#1947);
#658=VERTEX_POINT('',#1953);
#659=VERTEX_POINT('',#1957);
#660=VERTEX_POINT('',#1963);
#661=VERTEX_POINT('',#1964);
#662=VERTEX_POINT('',#1966);
#663=VERTEX_POINT('',#1968);
#664=VERTEX_POINT('',#1972);
#665=VERTEX_POINT('',#1974);
#666=VERTEX_POINT('',#1978);
#667=VERTEX_POINT('',#1980);
#668=EDGE_CURVE('',#560,#560,#536,.T.);
#669=EDGE_CURVE('',#560,#561,#260,.T.);
#670=EDGE_CURVE('',#561,#561,#537,.T.);
#671=EDGE_CURVE('',#562,#562,#538,.T.);
#672=EDGE_CURVE('',#563,#563,#539,.T.);
#673=EDGE_CURVE('',#563,#564,#261,.T.);
#674=EDGE_CURVE('',#564,#564,#540,.T.);
#675=EDGE_CURVE('',#565,#565,#541,.T.);
#676=EDGE_CURVE('',#566,#566,#542,.T.);
#677=EDGE_CURVE('',#566,#567,#262,.T.);
#678=EDGE_CURVE('',#567,#567,#543,.T.);
#679=EDGE_CURVE('',#568,#568,#544,.T.);
#680=EDGE_CURVE('',#569,#569,#545,.T.);
#681=EDGE_CURVE('',#569,#570,#263,.T.);
#682=EDGE_CURVE('',#570,#570,#546,.T.);
#683=EDGE_CURVE('',#571,#571,#547,.T.);
#684=EDGE_CURVE('',#565,#572,#264,.T.);
#685=EDGE_CURVE('',#572,#572,#548,.T.);
#686=EDGE_CURVE('',#568,#573,#265,.T.);
#687=EDGE_CURVE('',#573,#573,#549,.T.);
#688=EDGE_CURVE('',#562,#574,#266,.T.);
#689=EDGE_CURVE('',#574,#574,#550,.T.);
#690=EDGE_CURVE('',#571,#575,#267,.T.);
#691=EDGE_CURVE('',#575,#575,#551,.T.);
#692=EDGE_CURVE('',#576,#577,#268,.T.);
#693=EDGE_CURVE('',#578,#576,#269,.T.);
#694=EDGE_CURVE('',#579,#578,#270,.T.);
#695=EDGE_CURVE('',#579,#577,#271,.T.);
#696=EDGE_CURVE('',#580,#581,#272,.T.);
#697=EDGE_CURVE('',#582,#580,#273,.T.);
#698=EDGE_CURVE('',#583,#582,#274,.T.);
#699=EDGE_CURVE('',#583,#581,#275,.T.);
#700=EDGE_CURVE('',#583,#578,#276,.T.);
#701=EDGE_CURVE('',#579,#582,#277,.T.);
#702=EDGE_CURVE('',#580,#577,#278,.T.);
#703=EDGE_CURVE('',#576,#581,#279,.T.);
#704=EDGE_CURVE('',#584,#585,#280,.T.);
#705=EDGE_CURVE('',#586,#584,#281,.T.);
#706=EDGE_CURVE('',#587,#586,#282,.T.);
#707=EDGE_CURVE('',#587,#585,#283,.T.);
#708=EDGE_CURVE('',#588,#589,#284,.T.);
#709=EDGE_CURVE('',#590,#588,#285,.T.);
#710=EDGE_CURVE('',#591,#590,#286,.T.);
#711=EDGE_CURVE('',#591,#589,#287,.T.);
#712=EDGE_CURVE('',#591,#586,#288,.T.);
#713=EDGE_CURVE('',#587,#590,#289,.T.);
#714=EDGE_CURVE('',#588,#585,#290,.T.);
#715=EDGE_CURVE('',#584,#589,#291,.T.);
#716=EDGE_CURVE('',#592,#593,#292,.T.);
#717=EDGE_CURVE('',#594,#592,#293,.T.);
#718=EDGE_CURVE('',#595,#594,#294,.T.);
#719=EDGE_CURVE('',#595,#593,#295,.T.);
#720=EDGE_CURVE('',#596,#597,#296,.T.);
#721=EDGE_CURVE('',#598,#596,#297,.T.);
#722=EDGE_CURVE('',#599,#598,#298,.T.);
#723=EDGE_CURVE('',#599,#597,#299,.T.);
#724=EDGE_CURVE('',#599,#594,#300,.T.);
#725=EDGE_CURVE('',#595,#598,#301,.T.);
#726=EDGE_CURVE('',#596,#593,#302,.T.);
#727=EDGE_CURVE('',#592,#597,#303,.T.);
#728=EDGE_CURVE('',#600,#601,#304,.T.);
#729=EDGE_CURVE('',#602,#600,#305,.T.);
#730=EDGE_CURVE('',#602,#603,#306,.T.);
#731=EDGE_CURVE('',#601,#603,#307,.T.);
#732=EDGE_CURVE('',#604,#602,#308,.T.);
#733=EDGE_CURVE('',#604,#605,#309,.T.);
#734=EDGE_CURVE('',#603,#605,#310,.T.);
#735=EDGE_CURVE('',#606,#607,#311,.T.);
#736=EDGE_CURVE('',#605,#607,#312,.T.);
#737=EDGE_CURVE('',#606,#604,#313,.T.);
#738=EDGE_CURVE('',#600,#606,#314,.T.);
#739=EDGE_CURVE('',#607,#601,#315,.T.);
#740=EDGE_CURVE('',#608,#609,#316,.T.);
#741=EDGE_CURVE('',#610,#608,#317,.T.);
#742=EDGE_CURVE('',#610,#611,#318,.T.);
#743=EDGE_CURVE('',#609,#611,#319,.T.);
#744=EDGE_CURVE('',#612,#610,#320,.T.);
#745=EDGE_CURVE('',#612,#613,#321,.T.);
#746=EDGE_CURVE('',#611,#613,#322,.T.);
#747=EDGE_CURVE('',#614,#615,#323,.T.);
#748=EDGE_CURVE('',#613,#615,#324,.T.);
#749=EDGE_CURVE('',#614,#612,#325,.T.);
#750=EDGE_CURVE('',#608,#614,#326,.T.);
#751=EDGE_CURVE('',#615,#609,#327,.T.);
#752=EDGE_CURVE('',#616,#617,#328,.T.);
#753=EDGE_CURVE('',#618,#616,#329,.T.);
#754=EDGE_CURVE('',#618,#619,#330,.T.);
#755=EDGE_CURVE('',#617,#619,#331,.T.);
#756=EDGE_CURVE('',#620,#618,#332,.T.);
#757=EDGE_CURVE('',#620,#621,#333,.T.);
#758=EDGE_CURVE('',#619,#621,#334,.T.);
#759=EDGE_CURVE('',#622,#623,#335,.T.);
#760=EDGE_CURVE('',#621,#623,#336,.T.);
#761=EDGE_CURVE('',#622,#620,#337,.T.);
#762=EDGE_CURVE('',#616,#622,#338,.T.);
#763=EDGE_CURVE('',#623,#617,#339,.T.);
#764=EDGE_CURVE('',#624,#625,#340,.T.);
#765=EDGE_CURVE('',#625,#626,#341,.T.);
#766=EDGE_CURVE('',#626,#627,#342,.T.);
#767=EDGE_CURVE('',#628,#627,#343,.F.);
#768=EDGE_CURVE('',#629,#628,#344,.F.);
#769=EDGE_CURVE('',#630,#629,#345,.T.);
#770=EDGE_CURVE('',#630,#631,#346,.T.);
#771=EDGE_CURVE('',#624,#631,#347,.F.);
#772=EDGE_CURVE('',#632,#632,#552,.T.);
#773=EDGE_CURVE('',#632,#633,#348,.T.);
#774=EDGE_CURVE('',#633,#633,#553,.T.);
#775=EDGE_CURVE('',#634,#634,#554,.T.);
#776=EDGE_CURVE('',#634,#635,#349,.T.);
#777=EDGE_CURVE('',#635,#635,#555,.T.);
#778=EDGE_CURVE('',#636,#636,#556,.T.);
#779=EDGE_CURVE('',#636,#637,#350,.T.);
#780=EDGE_CURVE('',#637,#637,#557,.T.);
#781=EDGE_CURVE('',#638,#638,#558,.T.);
#782=EDGE_CURVE('',#638,#639,#351,.T.);
#783=EDGE_CURVE('',#639,#639,#559,.T.);
#784=EDGE_CURVE('',#640,#641,#352,.T.);
#785=EDGE_CURVE('',#640,#642,#353,.T.);
#786=EDGE_CURVE('',#642,#643,#354,.T.);
#787=EDGE_CURVE('',#641,#643,#355,.T.);
#788=EDGE_CURVE('',#644,#642,#356,.T.);
#789=EDGE_CURVE('',#645,#644,#357,.T.);
#790=EDGE_CURVE('',#643,#645,#358,.T.);
#791=EDGE_CURVE('',#646,#624,#359,.T.);
#792=EDGE_CURVE('',#631,#647,#360,.F.);
#793=EDGE_CURVE('',#647,#648,#361,.F.);
#794=EDGE_CURVE('',#648,#628,#362,.F.);
#795=EDGE_CURVE('',#627,#649,#363,.T.);
#796=EDGE_CURVE('',#649,#646,#364,.T.);
#797=EDGE_CURVE('',#650,#640,#365,.T.);
#798=EDGE_CURVE('',#641,#651,#366,.T.);
#799=EDGE_CURVE('',#651,#650,#367,.T.);
#800=EDGE_CURVE('',#646,#652,#368,.T.);
#801=EDGE_CURVE('',#652,#625,#369,.T.);
#802=EDGE_CURVE('',#649,#653,#370,.T.);
#803=EDGE_CURVE('',#653,#652,#371,.T.);
#804=EDGE_CURVE('',#626,#653,#372,.T.);
#805=EDGE_CURVE('',#654,#655,#373,.T.);
#806=EDGE_CURVE('',#650,#654,#374,.T.);
#807=EDGE_CURVE('',#651,#655,#375,.T.);
#808=EDGE_CURVE('',#655,#656,#376,.T.);
#809=EDGE_CURVE('',#645,#656,#377,.T.);
#810=EDGE_CURVE('',#644,#657,#378,.T.);
#811=EDGE_CURVE('',#656,#657,#379,.T.);
#812=EDGE_CURVE('',#657,#654,#380,.T.);
#813=EDGE_CURVE('',#629,#658,#381,.T.);
#814=EDGE_CURVE('',#658,#648,#382,.F.);
#815=EDGE_CURVE('',#658,#659,#383,.T.);
#816=EDGE_CURVE('',#659,#647,#384,.T.);
#817=EDGE_CURVE('',#659,#630,#385,.T.);
#818=EDGE_CURVE('',#660,#661,#386,.T.);
#819=EDGE_CURVE('',#661,#662,#387,.T.);
#820=EDGE_CURVE('',#663,#662,#388,.T.);
#821=EDGE_CURVE('',#660,#663,#389,.T.);
#822=EDGE_CURVE('',#664,#660,#390,.T.);
#823=EDGE_CURVE('',#665,#663,#391,.T.);
#824=EDGE_CURVE('',#664,#665,#392,.T.);
#825=EDGE_CURVE('',#666,#664,#393,.T.);
#826=EDGE_CURVE('',#667,#665,#394,.T.);
#827=EDGE_CURVE('',#666,#667,#395,.T.);
#828=EDGE_CURVE('',#661,#666,#396,.T.);
#829=EDGE_CURVE('',#662,#667,#397,.T.);
#830=ORIENTED_EDGE('',*,*,#668,.F.);
#831=ORIENTED_EDGE('',*,*,#669,.T.);
#832=ORIENTED_EDGE('',*,*,#670,.T.);
#833=ORIENTED_EDGE('',*,*,#669,.F.);
#834=ORIENTED_EDGE('',*,*,#670,.F.);
#835=ORIENTED_EDGE('',*,*,#671,.F.);
#836=ORIENTED_EDGE('',*,*,#672,.F.);
#837=ORIENTED_EDGE('',*,*,#673,.T.);
#838=ORIENTED_EDGE('',*,*,#674,.T.);
#839=ORIENTED_EDGE('',*,*,#673,.F.);
#840=ORIENTED_EDGE('',*,*,#674,.F.);
#841=ORIENTED_EDGE('',*,*,#675,.F.);
#842=ORIENTED_EDGE('',*,*,#676,.F.);
#843=ORIENTED_EDGE('',*,*,#677,.T.);
#844=ORIENTED_EDGE('',*,*,#678,.T.);
#845=ORIENTED_EDGE('',*,*,#677,.F.);
#846=ORIENTED_EDGE('',*,*,#678,.F.);
#847=ORIENTED_EDGE('',*,*,#679,.F.);
#848=ORIENTED_EDGE('',*,*,#680,.F.);
#849=ORIENTED_EDGE('',*,*,#681,.T.);
#850=ORIENTED_EDGE('',*,*,#682,.T.);
#851=ORIENTED_EDGE('',*,*,#681,.F.);
#852=ORIENTED_EDGE('',*,*,#682,.F.);
#853=ORIENTED_EDGE('',*,*,#683,.F.);
#854=ORIENTED_EDGE('',*,*,#675,.T.);
#855=ORIENTED_EDGE('',*,*,#684,.T.);
#856=ORIENTED_EDGE('',*,*,#685,.F.);
#857=ORIENTED_EDGE('',*,*,#684,.F.);
#858=ORIENTED_EDGE('',*,*,#679,.T.);
#859=ORIENTED_EDGE('',*,*,#686,.T.);
#860=ORIENTED_EDGE('',*,*,#687,.F.);
#861=ORIENTED_EDGE('',*,*,#686,.F.);
#862=ORIENTED_EDGE('',*,*,#671,.T.);
#863=ORIENTED_EDGE('',*,*,#688,.T.);
#864=ORIENTED_EDGE('',*,*,#689,.F.);
#865=ORIENTED_EDGE('',*,*,#688,.F.);
#866=ORIENTED_EDGE('',*,*,#683,.T.);
#867=ORIENTED_EDGE('',*,*,#690,.T.);
#868=ORIENTED_EDGE('',*,*,#691,.F.);
#869=ORIENTED_EDGE('',*,*,#690,.F.);
#870=ORIENTED_EDGE('',*,*,#692,.F.);
#871=ORIENTED_EDGE('',*,*,#693,.F.);
#872=ORIENTED_EDGE('',*,*,#694,.F.);
#873=ORIENTED_EDGE('',*,*,#695,.T.);
#874=ORIENTED_EDGE('',*,*,#696,.F.);
#875=ORIENTED_EDGE('',*,*,#697,.F.);
#876=ORIENTED_EDGE('',*,*,#698,.F.);
#877=ORIENTED_EDGE('',*,*,#699,.T.);
#878=ORIENTED_EDGE('',*,*,#694,.T.);
#879=ORIENTED_EDGE('',*,*,#700,.F.);
#880=ORIENTED_EDGE('',*,*,#698,.T.);
#881=ORIENTED_EDGE('',*,*,#701,.F.);
#882=ORIENTED_EDGE('',*,*,#692,.T.);
#883=ORIENTED_EDGE('',*,*,#702,.F.);
#884=ORIENTED_EDGE('',*,*,#696,.T.);
#885=ORIENTED_EDGE('',*,*,#703,.F.);
#886=ORIENTED_EDGE('',*,*,#704,.F.);
#887=ORIENTED_EDGE('',*,*,#705,.F.);
#888=ORIENTED_EDGE('',*,*,#706,.F.);
#889=ORIENTED_EDGE('',*,*,#707,.T.);
#890=ORIENTED_EDGE('',*,*,#708,.F.);
#891=ORIENTED_EDGE('',*,*,#709,.F.);
#892=ORIENTED_EDGE('',*,*,#710,.F.);
#893=ORIENTED_EDGE('',*,*,#711,.T.);
#894=ORIENTED_EDGE('',*,*,#706,.T.);
#895=ORIENTED_EDGE('',*,*,#712,.F.);
#896=ORIENTED_EDGE('',*,*,#710,.T.);
#897=ORIENTED_EDGE('',*,*,#713,.F.);
#898=ORIENTED_EDGE('',*,*,#704,.T.);
#899=ORIENTED_EDGE('',*,*,#714,.F.);
#900=ORIENTED_EDGE('',*,*,#708,.T.);
#901=ORIENTED_EDGE('',*,*,#715,.F.);
#902=ORIENTED_EDGE('',*,*,#716,.F.);
#903=ORIENTED_EDGE('',*,*,#717,.F.);
#904=ORIENTED_EDGE('',*,*,#718,.F.);
#905=ORIENTED_EDGE('',*,*,#719,.T.);
#906=ORIENTED_EDGE('',*,*,#720,.F.);
#907=ORIENTED_EDGE('',*,*,#721,.F.);
#908=ORIENTED_EDGE('',*,*,#722,.F.);
#909=ORIENTED_EDGE('',*,*,#723,.T.);
#910=ORIENTED_EDGE('',*,*,#718,.T.);
#911=ORIENTED_EDGE('',*,*,#724,.F.);
#912=ORIENTED_EDGE('',*,*,#722,.T.);
#913=ORIENTED_EDGE('',*,*,#725,.F.);
#914=ORIENTED_EDGE('',*,*,#716,.T.);
#915=ORIENTED_EDGE('',*,*,#726,.F.);
#916=ORIENTED_EDGE('',*,*,#720,.T.);
#917=ORIENTED_EDGE('',*,*,#727,.F.);
#918=ORIENTED_EDGE('',*,*,#728,.F.);
#919=ORIENTED_EDGE('',*,*,#729,.F.);
#920=ORIENTED_EDGE('',*,*,#730,.T.);
#921=ORIENTED_EDGE('',*,*,#731,.F.);
#922=ORIENTED_EDGE('',*,*,#693,.T.);
#923=ORIENTED_EDGE('',*,*,#703,.T.);
#924=ORIENTED_EDGE('',*,*,#699,.F.);
#925=ORIENTED_EDGE('',*,*,#700,.T.);
#926=ORIENTED_EDGE('',*,*,#732,.F.);
#927=ORIENTED_EDGE('',*,*,#733,.T.);
#928=ORIENTED_EDGE('',*,*,#734,.F.);
#929=ORIENTED_EDGE('',*,*,#730,.F.);
#930=ORIENTED_EDGE('',*,*,#735,.T.);
#931=ORIENTED_EDGE('',*,*,#736,.F.);
#932=ORIENTED_EDGE('',*,*,#733,.F.);
#933=ORIENTED_EDGE('',*,*,#737,.F.);
#934=ORIENTED_EDGE('',*,*,#701,.T.);
#935=ORIENTED_EDGE('',*,*,#697,.T.);
#936=ORIENTED_EDGE('',*,*,#702,.T.);
#937=ORIENTED_EDGE('',*,*,#695,.F.);
#938=ORIENTED_EDGE('',*,*,#738,.F.);
#939=ORIENTED_EDGE('',*,*,#728,.T.);
#940=ORIENTED_EDGE('',*,*,#739,.F.);
#941=ORIENTED_EDGE('',*,*,#735,.F.);
#942=ORIENTED_EDGE('',*,*,#740,.F.);
#943=ORIENTED_EDGE('',*,*,#741,.F.);
#944=ORIENTED_EDGE('',*,*,#742,.T.);
#945=ORIENTED_EDGE('',*,*,#743,.F.);
#946=ORIENTED_EDGE('',*,*,#705,.T.);
#947=ORIENTED_EDGE('',*,*,#715,.T.);
#948=ORIENTED_EDGE('',*,*,#711,.F.);
#949=ORIENTED_EDGE('',*,*,#712,.T.);
#950=ORIENTED_EDGE('',*,*,#744,.F.);
#951=ORIENTED_EDGE('',*,*,#745,.T.);
#952=ORIENTED_EDGE('',*,*,#746,.F.);
#953=ORIENTED_EDGE('',*,*,#742,.F.);
#954=ORIENTED_EDGE('',*,*,#747,.T.);
#955=ORIENTED_EDGE('',*,*,#748,.F.);
#956=ORIENTED_EDGE('',*,*,#745,.F.);
#957=ORIENTED_EDGE('',*,*,#749,.F.);
#958=ORIENTED_EDGE('',*,*,#713,.T.);
#959=ORIENTED_EDGE('',*,*,#709,.T.);
#960=ORIENTED_EDGE('',*,*,#714,.T.);
#961=ORIENTED_EDGE('',*,*,#707,.F.);
#962=ORIENTED_EDGE('',*,*,#750,.F.);
#963=ORIENTED_EDGE('',*,*,#740,.T.);
#964=ORIENTED_EDGE('',*,*,#751,.F.);
#965=ORIENTED_EDGE('',*,*,#747,.F.);
#966=ORIENTED_EDGE('',*,*,#752,.F.);
#967=ORIENTED_EDGE('',*,*,#753,.F.);
#968=ORIENTED_EDGE('',*,*,#754,.T.);
#969=ORIENTED_EDGE('',*,*,#755,.F.);
#970=ORIENTED_EDGE('',*,*,#717,.T.);
#971=ORIENTED_EDGE('',*,*,#727,.T.);
#972=ORIENTED_EDGE('',*,*,#723,.F.);
#973=ORIENTED_EDGE('',*,*,#724,.T.);
#974=ORIENTED_EDGE('',*,*,#756,.F.);
#975=ORIENTED_EDGE('',*,*,#757,.T.);
#976=ORIENTED_EDGE('',*,*,#758,.F.);
#977=ORIENTED_EDGE('',*,*,#754,.F.);
#978=ORIENTED_EDGE('',*,*,#759,.T.);
#979=ORIENTED_EDGE('',*,*,#760,.F.);
#980=ORIENTED_EDGE('',*,*,#757,.F.);
#981=ORIENTED_EDGE('',*,*,#761,.F.);
#982=ORIENTED_EDGE('',*,*,#725,.T.);
#983=ORIENTED_EDGE('',*,*,#721,.T.);
#984=ORIENTED_EDGE('',*,*,#726,.T.);
#985=ORIENTED_EDGE('',*,*,#719,.F.);
#986=ORIENTED_EDGE('',*,*,#762,.F.);
#987=ORIENTED_EDGE('',*,*,#752,.T.);
#988=ORIENTED_EDGE('',*,*,#763,.F.);
#989=ORIENTED_EDGE('',*,*,#759,.F.);
#990=ORIENTED_EDGE('',*,*,#764,.T.);
#991=ORIENTED_EDGE('',*,*,#765,.T.);
#992=ORIENTED_EDGE('',*,*,#766,.T.);
#993=ORIENTED_EDGE('',*,*,#767,.F.);
#994=ORIENTED_EDGE('',*,*,#768,.F.);
#995=ORIENTED_EDGE('',*,*,#769,.F.);
#996=ORIENTED_EDGE('',*,*,#770,.T.);
#997=ORIENTED_EDGE('',*,*,#771,.F.);
#998=ORIENTED_EDGE('',*,*,#772,.F.);
#999=ORIENTED_EDGE('',*,*,#773,.T.);
#1000=ORIENTED_EDGE('',*,*,#774,.T.);
#1001=ORIENTED_EDGE('',*,*,#773,.F.);
#1002=ORIENTED_EDGE('',*,*,#774,.F.);
#1003=ORIENTED_EDGE('',*,*,#775,.F.);
#1004=ORIENTED_EDGE('',*,*,#776,.T.);
#1005=ORIENTED_EDGE('',*,*,#777,.T.);
#1006=ORIENTED_EDGE('',*,*,#776,.F.);
#1007=ORIENTED_EDGE('',*,*,#777,.F.);
#1008=ORIENTED_EDGE('',*,*,#778,.F.);
#1009=ORIENTED_EDGE('',*,*,#779,.T.);
#1010=ORIENTED_EDGE('',*,*,#780,.T.);
#1011=ORIENTED_EDGE('',*,*,#779,.F.);
#1012=ORIENTED_EDGE('',*,*,#780,.F.);
#1013=ORIENTED_EDGE('',*,*,#781,.F.);
#1014=ORIENTED_EDGE('',*,*,#782,.T.);
#1015=ORIENTED_EDGE('',*,*,#783,.T.);
#1016=ORIENTED_EDGE('',*,*,#782,.F.);
#1017=ORIENTED_EDGE('',*,*,#783,.F.);
#1018=ORIENTED_EDGE('',*,*,#784,.F.);
#1019=ORIENTED_EDGE('',*,*,#785,.T.);
#1020=ORIENTED_EDGE('',*,*,#786,.T.);
#1021=ORIENTED_EDGE('',*,*,#787,.F.);
#1022=ORIENTED_EDGE('',*,*,#786,.F.);
#1023=ORIENTED_EDGE('',*,*,#788,.F.);
#1024=ORIENTED_EDGE('',*,*,#789,.F.);
#1025=ORIENTED_EDGE('',*,*,#790,.F.);
#1026=ORIENTED_EDGE('',*,*,#791,.T.);
#1027=ORIENTED_EDGE('',*,*,#771,.T.);
#1028=ORIENTED_EDGE('',*,*,#792,.T.);
#1029=ORIENTED_EDGE('',*,*,#793,.T.);
#1030=ORIENTED_EDGE('',*,*,#794,.T.);
#1031=ORIENTED_EDGE('',*,*,#767,.T.);
#1032=ORIENTED_EDGE('',*,*,#795,.T.);
#1033=ORIENTED_EDGE('',*,*,#796,.T.);
#1034=ORIENTED_EDGE('',*,*,#772,.T.);
#1035=ORIENTED_EDGE('',*,*,#775,.T.);
#1036=ORIENTED_EDGE('',*,*,#778,.T.);
#1037=ORIENTED_EDGE('',*,*,#781,.T.);
#1038=ORIENTED_EDGE('',*,*,#797,.T.);
#1039=ORIENTED_EDGE('',*,*,#784,.T.);
#1040=ORIENTED_EDGE('',*,*,#798,.T.);
#1041=ORIENTED_EDGE('',*,*,#799,.T.);
#1042=ORIENTED_EDGE('',*,*,#753,.T.);
#1043=ORIENTED_EDGE('',*,*,#762,.T.);
#1044=ORIENTED_EDGE('',*,*,#761,.T.);
#1045=ORIENTED_EDGE('',*,*,#756,.T.);
#1046=ORIENTED_EDGE('',*,*,#741,.T.);
#1047=ORIENTED_EDGE('',*,*,#750,.T.);
#1048=ORIENTED_EDGE('',*,*,#749,.T.);
#1049=ORIENTED_EDGE('',*,*,#744,.T.);
#1050=ORIENTED_EDGE('',*,*,#729,.T.);
#1051=ORIENTED_EDGE('',*,*,#738,.T.);
#1052=ORIENTED_EDGE('',*,*,#737,.T.);
#1053=ORIENTED_EDGE('',*,*,#732,.T.);
#1054=ORIENTED_EDGE('',*,*,#791,.F.);
#1055=ORIENTED_EDGE('',*,*,#800,.T.);
#1056=ORIENTED_EDGE('',*,*,#801,.T.);
#1057=ORIENTED_EDGE('',*,*,#764,.F.);
#1058=ORIENTED_EDGE('',*,*,#796,.F.);
#1059=ORIENTED_EDGE('',*,*,#802,.T.);
#1060=ORIENTED_EDGE('',*,*,#803,.T.);
#1061=ORIENTED_EDGE('',*,*,#800,.F.);
#1062=ORIENTED_EDGE('',*,*,#795,.F.);
#1063=ORIENTED_EDGE('',*,*,#766,.F.);
#1064=ORIENTED_EDGE('',*,*,#804,.T.);
#1065=ORIENTED_EDGE('',*,*,#802,.F.);
#1066=ORIENTED_EDGE('',*,*,#801,.F.);
#1067=ORIENTED_EDGE('',*,*,#803,.F.);
#1068=ORIENTED_EDGE('',*,*,#804,.F.);
#1069=ORIENTED_EDGE('',*,*,#765,.F.);
#1070=ORIENTED_EDGE('',*,*,#805,.F.);
#1071=ORIENTED_EDGE('',*,*,#806,.F.);
#1072=ORIENTED_EDGE('',*,*,#799,.F.);
#1073=ORIENTED_EDGE('',*,*,#807,.T.);
#1074=ORIENTED_EDGE('',*,*,#808,.F.);
#1075=ORIENTED_EDGE('',*,*,#807,.F.);
#1076=ORIENTED_EDGE('',*,*,#798,.F.);
#1077=ORIENTED_EDGE('',*,*,#787,.T.);
#1078=ORIENTED_EDGE('',*,*,#790,.T.);
#1079=ORIENTED_EDGE('',*,*,#809,.T.);
#1080=ORIENTED_EDGE('',*,*,#789,.T.);
#1081=ORIENTED_EDGE('',*,*,#810,.T.);
#1082=ORIENTED_EDGE('',*,*,#811,.F.);
#1083=ORIENTED_EDGE('',*,*,#809,.F.);
#1084=ORIENTED_EDGE('',*,*,#812,.F.);
#1085=ORIENTED_EDGE('',*,*,#810,.F.);
#1086=ORIENTED_EDGE('',*,*,#788,.T.);
#1087=ORIENTED_EDGE('',*,*,#785,.F.);
#1088=ORIENTED_EDGE('',*,*,#797,.F.);
#1089=ORIENTED_EDGE('',*,*,#806,.T.);
#1090=ORIENTED_EDGE('',*,*,#813,.F.);
#1091=ORIENTED_EDGE('',*,*,#768,.T.);
#1092=ORIENTED_EDGE('',*,*,#794,.F.);
#1093=ORIENTED_EDGE('',*,*,#814,.F.);
#1094=ORIENTED_EDGE('',*,*,#815,.F.);
#1095=ORIENTED_EDGE('',*,*,#814,.T.);
#1096=ORIENTED_EDGE('',*,*,#793,.F.);
#1097=ORIENTED_EDGE('',*,*,#816,.F.);
#1098=ORIENTED_EDGE('',*,*,#817,.F.);
#1099=ORIENTED_EDGE('',*,*,#816,.T.);
#1100=ORIENTED_EDGE('',*,*,#792,.F.);
#1101=ORIENTED_EDGE('',*,*,#770,.F.);
#1102=ORIENTED_EDGE('',*,*,#818,.T.);
#1103=ORIENTED_EDGE('',*,*,#819,.T.);
#1104=ORIENTED_EDGE('',*,*,#820,.F.);
#1105=ORIENTED_EDGE('',*,*,#821,.F.);
#1106=ORIENTED_EDGE('',*,*,#822,.T.);
#1107=ORIENTED_EDGE('',*,*,#821,.T.);
#1108=ORIENTED_EDGE('',*,*,#823,.F.);
#1109=ORIENTED_EDGE('',*,*,#824,.F.);
#1110=ORIENTED_EDGE('',*,*,#825,.T.);
#1111=ORIENTED_EDGE('',*,*,#824,.T.);
#1112=ORIENTED_EDGE('',*,*,#826,.F.);
#1113=ORIENTED_EDGE('',*,*,#827,.F.);
#1114=ORIENTED_EDGE('',*,*,#828,.T.);
#1115=ORIENTED_EDGE('',*,*,#827,.T.);
#1116=ORIENTED_EDGE('',*,*,#829,.F.);
#1117=ORIENTED_EDGE('',*,*,#819,.F.);
#1118=ORIENTED_EDGE('',*,*,#829,.T.);
#1119=ORIENTED_EDGE('',*,*,#826,.T.);
#1120=ORIENTED_EDGE('',*,*,#823,.T.);
#1121=ORIENTED_EDGE('',*,*,#820,.T.);
#1122=ORIENTED_EDGE('',*,*,#813,.T.);
#1123=ORIENTED_EDGE('',*,*,#815,.T.);
#1124=ORIENTED_EDGE('',*,*,#817,.T.);
#1125=ORIENTED_EDGE('',*,*,#769,.T.);
#1126=ORIENTED_EDGE('',*,*,#691,.T.);
#1127=ORIENTED_EDGE('',*,*,#689,.T.);
#1128=ORIENTED_EDGE('',*,*,#687,.T.);
#1129=ORIENTED_EDGE('',*,*,#685,.T.);
#1130=ORIENTED_EDGE('',*,*,#828,.F.);
#1131=ORIENTED_EDGE('',*,*,#818,.F.);
#1132=ORIENTED_EDGE('',*,*,#822,.F.);
#1133=ORIENTED_EDGE('',*,*,#825,.F.);
#1134=ORIENTED_EDGE('',*,*,#731,.T.);
#1135=ORIENTED_EDGE('',*,*,#734,.T.);
#1136=ORIENTED_EDGE('',*,*,#736,.T.);
#1137=ORIENTED_EDGE('',*,*,#739,.T.);
#1138=ORIENTED_EDGE('',*,*,#743,.T.);
#1139=ORIENTED_EDGE('',*,*,#746,.T.);
#1140=ORIENTED_EDGE('',*,*,#748,.T.);
#1141=ORIENTED_EDGE('',*,*,#751,.T.);
#1142=ORIENTED_EDGE('',*,*,#755,.T.);
#1143=ORIENTED_EDGE('',*,*,#758,.T.);
#1144=ORIENTED_EDGE('',*,*,#760,.T.);
#1145=ORIENTED_EDGE('',*,*,#763,.T.);
#1146=ORIENTED_EDGE('',*,*,#811,.T.);
#1147=ORIENTED_EDGE('',*,*,#812,.T.);
#1148=ORIENTED_EDGE('',*,*,#805,.T.);
#1149=ORIENTED_EDGE('',*,*,#808,.T.);
#1150=ORIENTED_EDGE('',*,*,#680,.T.);
#1151=ORIENTED_EDGE('',*,*,#676,.T.);
#1152=ORIENTED_EDGE('',*,*,#672,.T.);
#1153=ORIENTED_EDGE('',*,*,#668,.T.);
#1154=CYLINDRICAL_SURFACE('',#1245,2.15);
#1155=CYLINDRICAL_SURFACE('',#1250,2.15);
#1156=CYLINDRICAL_SURFACE('',#1255,2.15);
#1157=CYLINDRICAL_SURFACE('',#1260,2.15);
#1158=CYLINDRICAL_SURFACE('',#1265,0.749999999999993);
#1159=CYLINDRICAL_SURFACE('',#1267,0.749999999999993);
#1160=CYLINDRICAL_SURFACE('',#1269,0.749999999999993);
#1161=CYLINDRICAL_SURFACE('',#1271,0.749999999999993);
#1162=CYLINDRICAL_SURFACE('',#1298,0.499999999999998);
#1163=CYLINDRICAL_SURFACE('',#1302,0.5);
#1164=CYLINDRICAL_SURFACE('',#1306,0.5);
#1165=CYLINDRICAL_SURFACE('',#1310,0.499999999999998);
#1166=ADVANCED_FACE('',(#99),#1154,.F.);
#1167=ADVANCED_FACE('',(#100,#15),#46,.T.);
#1168=ADVANCED_FACE('',(#101),#1155,.F.);
#1169=ADVANCED_FACE('',(#102,#16),#47,.T.);
#1170=ADVANCED_FACE('',(#103),#1156,.F.);
#1171=ADVANCED_FACE('',(#104,#17),#48,.T.);
#1172=ADVANCED_FACE('',(#105),#1157,.F.);
#1173=ADVANCED_FACE('',(#106,#18),#49,.T.);
#1174=ADVANCED_FACE('',(#107),#1158,.F.);
#1175=ADVANCED_FACE('',(#108),#1159,.F.);
#1176=ADVANCED_FACE('',(#109),#1160,.F.);
#1177=ADVANCED_FACE('',(#110),#1161,.F.);
#1178=ADVANCED_FACE('',(#111),#50,.F.);
#1179=ADVANCED_FACE('',(#112),#51,.F.);
#1180=ADVANCED_FACE('',(#113),#52,.F.);
#1181=ADVANCED_FACE('',(#114),#53,.F.);
#1182=ADVANCED_FACE('',(#115),#54,.F.);
#1183=ADVANCED_FACE('',(#116),#55,.F.);
#1184=ADVANCED_FACE('',(#117),#56,.F.);
#1185=ADVANCED_FACE('',(#118),#57,.F.);
#1186=ADVANCED_FACE('',(#119),#58,.F.);
#1187=ADVANCED_FACE('',(#120),#59,.F.);
#1188=ADVANCED_FACE('',(#121),#60,.F.);
#1189=ADVANCED_FACE('',(#122),#61,.F.);
#1190=ADVANCED_FACE('',(#123,#19),#62,.F.);
#1191=ADVANCED_FACE('',(#124),#63,.F.);
#1192=ADVANCED_FACE('',(#125,#20),#64,.F.);
#1193=ADVANCED_FACE('',(#126),#65,.F.);
#1194=ADVANCED_FACE('',(#127,#21),#66,.F.);
#1195=ADVANCED_FACE('',(#128),#67,.F.);
#1196=ADVANCED_FACE('',(#129,#22),#68,.F.);
#1197=ADVANCED_FACE('',(#130),#69,.F.);
#1198=ADVANCED_FACE('',(#131,#23),#70,.F.);
#1199=ADVANCED_FACE('',(#132),#71,.F.);
#1200=ADVANCED_FACE('',(#133,#24),#72,.F.);
#1201=ADVANCED_FACE('',(#134),#73,.F.);
#1202=ADVANCED_FACE('',(#135),#74,.T.);
#1203=ADVANCED_FACE('',(#136),#1162,.F.);
#1204=ADVANCED_FACE('',(#137),#75,.T.);
#1205=ADVANCED_FACE('',(#138),#1163,.F.);
#1206=ADVANCED_FACE('',(#139),#76,.T.);
#1207=ADVANCED_FACE('',(#140),#1164,.F.);
#1208=ADVANCED_FACE('',(#141),#77,.T.);
#1209=ADVANCED_FACE('',(#142),#1165,.F.);
#1210=ADVANCED_FACE('',(#143),#78,.T.);
#1211=ADVANCED_FACE('',(#144),#79,.F.);
#1212=ADVANCED_FACE('',(#145),#80,.F.);
#1213=ADVANCED_FACE('',(#146,#25,#26,#27,#28,#29,#30,#31,#32),#81,.T.);
#1214=ADVANCED_FACE('',(#147),#82,.F.);
#1215=ADVANCED_FACE('',(#148),#83,.F.);
#1216=ADVANCED_FACE('',(#149),#84,.F.);
#1217=ADVANCED_FACE('',(#150),#85,.F.);
#1218=ADVANCED_FACE('',(#151),#86,.F.);
#1219=ADVANCED_FACE('',(#152),#87,.F.);
#1220=ADVANCED_FACE('',(#153),#88,.F.);
#1221=ADVANCED_FACE('',(#154),#89,.F.);
#1222=ADVANCED_FACE('',(#155),#90,.T.);
#1223=ADVANCED_FACE('',(#156),#91,.T.);
#1224=ADVANCED_FACE('',(#157),#92,.T.);
#1225=ADVANCED_FACE('',(#158),#93,.T.);
#1226=ADVANCED_FACE('',(#159),#94,.T.);
#1227=ADVANCED_FACE('',(#160),#95,.T.);
#1228=ADVANCED_FACE('',(#161),#96,.T.);
#1229=ADVANCED_FACE('',(#162,#33,#34,#35,#36,#37),#97,.T.);
#1230=ADVANCED_FACE('',(#163,#38,#39,#40,#41,#42,#43,#44,#45),#98,.F.);
#1231=CLOSED_SHELL('',(#1166,#1167,#1168,#1169,#1170,#1171,#1172,#1173,
#1174,#1175,#1176,#1177,#1178,#1179,#1180,#1181,#1182,#1183,#1184,#1185,
#1186,#1187,#1188,#1189,#1190,#1191,#1192,#1193,#1194,#1195,#1196,#1197,
#1198,#1199,#1200,#1201,#1202,#1203,#1204,#1205,#1206,#1207,#1208,#1209,
#1210,#1211,#1212,#1213,#1214,#1215,#1216,#1217,#1218,#1219,#1220,#1221,
#1222,#1223,#1224,#1225,#1226,#1227,#1228,#1229,#1230));
#1232=DERIVED_UNIT_ELEMENT(#1234,1.);
#1233=DERIVED_UNIT_ELEMENT(#1993,-3.);
#1234=(
MASS_UNIT()
NAMED_UNIT(*)
SI_UNIT(.KILO.,.GRAM.)
);
#1235=DERIVED_UNIT((#1232,#1233));
#1236=MEASURE_REPRESENTATION_ITEM('density measure',
POSITIVE_RATIO_MEASURE(7850.),#1235);
#1237=PROPERTY_DEFINITION_REPRESENTATION(#1242,#1239);
#1238=PROPERTY_DEFINITION_REPRESENTATION(#1243,#1240);
#1239=REPRESENTATION('material name',(#1241),#1990);
#1240=REPRESENTATION('density',(#1236),#1990);
#1241=DESCRIPTIVE_REPRESENTATION_ITEM('Acciaio','Acciaio');
#1242=PROPERTY_DEFINITION('material property','material name',#2000);
#1243=PROPERTY_DEFINITION('material property','density of part',#2000);
#1244=AXIS2_PLACEMENT_3D('',#1652,#1334,#1335);
#1245=AXIS2_PLACEMENT_3D('',#1653,#1336,#1337);
#1246=AXIS2_PLACEMENT_3D('',#1655,#1338,#1339);
#1247=AXIS2_PLACEMENT_3D('',#1658,#1341,#1342);
#1248=AXIS2_PLACEMENT_3D('',#1659,#1343,#1344);
#1249=AXIS2_PLACEMENT_3D('',#1661,#1345,#1346);
#1250=AXIS2_PLACEMENT_3D('',#1662,#1347,#1348);
#1251=AXIS2_PLACEMENT_3D('',#1664,#1349,#1350);
#1252=AXIS2_PLACEMENT_3D('',#1667,#1352,#1353);
#1253=AXIS2_PLACEMENT_3D('',#1668,#1354,#1355);
#1254=AXIS2_PLACEMENT_3D('',#1670,#1356,#1357);
#1255=AXIS2_PLACEMENT_3D('',#1671,#1358,#1359);
#1256=AXIS2_PLACEMENT_3D('',#1673,#1360,#1361);
#1257=AXIS2_PLACEMENT_3D('',#1676,#1363,#1364);
#1258=AXIS2_PLACEMENT_3D('',#1677,#1365,#1366);
#1259=AXIS2_PLACEMENT_3D('',#1679,#1367,#1368);
#1260=AXIS2_PLACEMENT_3D('',#1680,#1369,#1370);
#1261=AXIS2_PLACEMENT_3D('',#1682,#1371,#1372);
#1262=AXIS2_PLACEMENT_3D('',#1685,#1374,#1375);
#1263=AXIS2_PLACEMENT_3D('',#1686,#1376,#1377);
#1264=AXIS2_PLACEMENT_3D('',#1688,#1378,#1379);
#1265=AXIS2_PLACEMENT_3D('',#1689,#1380,#1381);
#1266=AXIS2_PLACEMENT_3D('',#1692,#1383,#1384);
#1267=AXIS2_PLACEMENT_3D('',#1693,#1385,#1386);
#1268=AXIS2_PLACEMENT_3D('',#1696,#1388,#1389);
#1269=AXIS2_PLACEMENT_3D('',#1697,#1390,#1391);
#1270=AXIS2_PLACEMENT_3D('',#1700,#1393,#1394);
#1271=AXIS2_PLACEMENT_3D('',#1701,#1395,#1396);
#1272=AXIS2_PLACEMENT_3D('',#1704,#1398,#1399);
#1273=AXIS2_PLACEMENT_3D('',#1705,#1400,#1401);
#1274=AXIS2_PLACEMENT_3D('',#1714,#1406,#1407);
#1275=AXIS2_PLACEMENT_3D('',#1723,#1412,#1413);
#1276=AXIS2_PLACEMENT_3D('',#1726,#1416,#1417);
#1277=AXIS2_PLACEMENT_3D('',#1729,#1420,#1421);
#1278=AXIS2_PLACEMENT_3D('',#1738,#1426,#1427);
#1279=AXIS2_PLACEMENT_3D('',#1747,#1432,#1433);
#1280=AXIS2_PLACEMENT_3D('',#1750,#1436,#1437);
#1281=AXIS2_PLACEMENT_3D('',#1753,#1440,#1441);
#1282=AXIS2_PLACEMENT_3D('',#1762,#1446,#1447);
#1283=AXIS2_PLACEMENT_3D('',#1771,#1452,#1453);
#1284=AXIS2_PLACEMENT_3D('',#1774,#1456,#1457);
#1285=AXIS2_PLACEMENT_3D('',#1777,#1460,#1461);
#1286=AXIS2_PLACEMENT_3D('',#1786,#1466,#1467);
#1287=AXIS2_PLACEMENT_3D('',#1792,#1471,#1472);
#1288=AXIS2_PLACEMENT_3D('',#1798,#1476,#1477);
#1289=AXIS2_PLACEMENT_3D('',#1801,#1480,#1481);
#1290=AXIS2_PLACEMENT_3D('',#1810,#1486,#1487);
#1291=AXIS2_PLACEMENT_3D('',#1816,#1491,#1492);
#1292=AXIS2_PLACEMENT_3D('',#1822,#1496,#1497);
#1293=AXIS2_PLACEMENT_3D('',#1825,#1500,#1501);
#1294=AXIS2_PLACEMENT_3D('',#1834,#1506,#1507);
#1295=AXIS2_PLACEMENT_3D('',#1840,#1511,#1512);
#1296=AXIS2_PLACEMENT_3D('',#1846,#1516,#1517);
#1297=AXIS2_PLACEMENT_3D('',#1849,#1520,#1521);
#1298=AXIS2_PLACEMENT_3D('',#1866,#1530,#1531);
#1299=AXIS2_PLACEMENT_3D('',#1868,#1532,#1533);
#1300=AXIS2_PLACEMENT_3D('',#1871,#1535,#1536);
#1301=AXIS2_PLACEMENT_3D('',#1872,#1537,#1538);
#1302=AXIS2_PLACEMENT_3D('',#1873,#1539,#1540);
#1303=AXIS2_PLACEMENT_3D('',#1875,#1541,#1542);
#1304=AXIS2_PLACEMENT_3D('',#1878,#1544,#1545);
#1305=AXIS2_PLACEMENT_3D('',#1879,#1546,#1547);
#1306=AXIS2_PLACEMENT_3D('',#1880,#1548,#1549);
#1307=AXIS2_PLACEMENT_3D('',#1882,#1550,#1551);
#1308=AXIS2_PLACEMENT_3D('',#1885,#1553,#1554);
#1309=AXIS2_PLACEMENT_3D('',#1886,#1555,#1556);
#1310=AXIS2_PLACEMENT_3D('',#1887,#1557,#1558);
#1311=AXIS2_PLACEMENT_3D('',#1889,#1559,#1560);
#1312=AXIS2_PLACEMENT_3D('',#1892,#1562,#1563);
#1313=AXIS2_PLACEMENT_3D('',#1893,#1564,#1565);
#1314=AXIS2_PLACEMENT_3D('',#1894,#1566,#1567);
#1315=AXIS2_PLACEMENT_3D('',#1903,#1572,#1573);
#1316=AXIS2_PLACEMENT_3D('',#1909,#1577,#1578);
#1317=AXIS2_PLACEMENT_3D('',#1925,#1588,#1589);
#1318=AXIS2_PLACEMENT_3D('',#1929,#1592,#1593);
#1319=AXIS2_PLACEMENT_3D('',#1933,#1596,#1597);
#1320=AXIS2_PLACEMENT_3D('',#1935,#1599,#1600);
#1321=AXIS2_PLACEMENT_3D('',#1936,#1601,#1602);
#1322=AXIS2_PLACEMENT_3D('',#1942,#1606,#1607);
#1323=AXIS2_PLACEMENT_3D('',#1946,#1610,#1611);
#1324=AXIS2_PLACEMENT_3D('',#1950,#1614,#1615);
#1325=AXIS2_PLACEMENT_3D('',#1952,#1617,#1618);
#1326=AXIS2_PLACEMENT_3D('',#1956,#1621,#1622);
#1327=AXIS2_PLACEMENT_3D('',#1960,#1625,#1626);
#1328=AXIS2_PLACEMENT_3D('',#1962,#1628,#1629);
#1329=AXIS2_PLACEMENT_3D('',#1971,#1634,#1635);
#1330=AXIS2_PLACEMENT_3D('',#1977,#1639,#1640);
#1331=AXIS2_PLACEMENT_3D('',#1983,#1644,#1645);
#1332=AXIS2_PLACEMENT_3D('',#1986,#1648,#1649);
#1333=AXIS2_PLACEMENT_3D('',#1987,#1650,#1651);
#1334=DIRECTION('axis',(0.,0.,1.));
#1335=DIRECTION('refdir',(1.,0.,0.));
#1336=DIRECTION('center_axis',(0.,0.,1.));
#1337=DIRECTION('ref_axis',(1.,0.,0.));
#1338=DIRECTION('center_axis',(0.,0.,1.));
#1339=DIRECTION('ref_axis',(1.,0.,0.));
#1340=DIRECTION('',(0.,0.,1.));
#1341=DIRECTION('center_axis',(0.,0.,1.));
#1342=DIRECTION('ref_axis',(1.,0.,0.));
#1343=DIRECTION('center_axis',(0.,0.,-1.));
#1344=DIRECTION('ref_axis',(1.,0.,0.));
#1345=DIRECTION('center_axis',(0.,0.,-1.));
#1346=DIRECTION('ref_axis',(1.,0.,0.));
#1347=DIRECTION('center_axis',(0.,0.,1.));
#1348=DIRECTION('ref_axis',(1.,0.,0.));
#1349=DIRECTION('center_axis',(0.,0.,1.));
#1350=DIRECTION('ref_axis',(1.,0.,0.));
#1351=DIRECTION('',(0.,0.,1.));
#1352=DIRECTION('center_axis',(0.,0.,1.));
#1353=DIRECTION('ref_axis',(1.,0.,0.));
#1354=DIRECTION('center_axis',(0.,0.,-1.));
#1355=DIRECTION('ref_axis',(1.,0.,0.));
#1356=DIRECTION('center_axis',(0.,0.,-1.));
#1357=DIRECTION('ref_axis',(1.,0.,0.));
#1358=DIRECTION('center_axis',(0.,0.,1.));
#1359=DIRECTION('ref_axis',(1.,0.,0.));
#1360=DIRECTION('center_axis',(0.,0.,1.));
#1361=DIRECTION('ref_axis',(1.,0.,0.));
#1362=DIRECTION('',(0.,0.,1.));
#1363=DIRECTION('center_axis',(0.,0.,1.));
#1364=DIRECTION('ref_axis',(1.,0.,0.));
#1365=DIRECTION('center_axis',(0.,0.,-1.));
#1366=DIRECTION('ref_axis',(1.,0.,0.));
#1367=DIRECTION('center_axis',(0.,0.,-1.));
#1368=DIRECTION('ref_axis',(1.,0.,0.));
#1369=DIRECTION('center_axis',(0.,0.,1.));
#1370=DIRECTION('ref_axis',(1.,0.,0.));
#1371=DIRECTION('center_axis',(0.,0.,1.));
#1372=DIRECTION('ref_axis',(1.,0.,0.));
#1373=DIRECTION('',(0.,0.,1.));
#1374=DIRECTION('center_axis',(0.,0.,1.));
#1375=DIRECTION('ref_axis',(1.,0.,0.));
#1376=DIRECTION('center_axis',(0.,0.,-1.));
#1377=DIRECTION('ref_axis',(1.,0.,0.));
#1378=DIRECTION('center_axis',(0.,0.,-1.));
#1379=DIRECTION('ref_axis',(1.,0.,0.));
#1380=DIRECTION('center_axis',(0.,0.,1.));
#1381=DIRECTION('ref_axis',(1.,0.,0.));
#1382=DIRECTION('',(0.,0.,1.));
#1383=DIRECTION('center_axis',(0.,0.,-1.));
#1384=DIRECTION('ref_axis',(1.,0.,0.));
#1385=DIRECTION('center_axis',(0.,0.,1.));
#1386=DIRECTION('ref_axis',(1.,0.,0.));
#1387=DIRECTION('',(0.,0.,1.));
#1388=DIRECTION('center_axis',(0.,0.,-1.));
#1389=DIRECTION('ref_axis',(1.,0.,0.));
#1390=DIRECTION('center_axis',(0.,0.,1.));
#1391=DIRECTION('ref_axis',(1.,0.,0.));
#1392=DIRECTION('',(0.,0.,1.));
#1393=DIRECTION('center_axis',(0.,0.,-1.));
#1394=DIRECTION('ref_axis',(1.,0.,0.));
#1395=DIRECTION('center_axis',(0.,0.,1.));
#1396=DIRECTION('ref_axis',(1.,0.,0.));
#1397=DIRECTION('',(0.,0.,1.));
#1398=DIRECTION('center_axis',(0.,0.,-1.));
#1399=DIRECTION('ref_axis',(1.,0.,0.));
#1400=DIRECTION('center_axis',(0.,1.,0.));
#1401=DIRECTION('ref_axis',(1.,0.,0.));
#1402=DIRECTION('',(-1.,0.,0.));
#1403=DIRECTION('',(0.,0.,-1.));
#1404=DIRECTION('',(1.,0.,0.));
#1405=DIRECTION('',(0.,0.,-1.));
#1406=DIRECTION('center_axis',(0.,-1.,0.));
#1407=DIRECTION('ref_axis',(-1.,0.,0.));
#1408=DIRECTION('',(1.,0.,0.));
#1409=DIRECTION('',(0.,0.,-1.));
#1410=DIRECTION('',(-1.,0.,0.));
#1411=DIRECTION('',(0.,0.,-1.));
#1412=DIRECTION('center_axis',(0.,0.,-1.));
#1413=DIRECTION('ref_axis',(-1.,0.,0.));
#1414=DIRECTION('',(0.,-1.,0.));
#1415=DIRECTION('',(0.,1.,0.));
#1416=DIRECTION('center_axis',(0.,0.,1.));
#1417=DIRECTION('ref_axis',(1.,0.,0.));
#1418=DIRECTION('',(0.,-1.,0.));
#1419=DIRECTION('',(0.,1.,0.));
#1420=DIRECTION('center_axis',(0.,-1.,0.));
#1421=DIRECTION('ref_axis',(-1.,0.,0.));
#1422=DIRECTION('',(1.,0.,0.));
#1423=DIRECTION('',(0.,0.,-1.));
#1424=DIRECTION('',(-1.,0.,0.));
#1425=DIRECTION('',(0.,0.,-1.));
#1426=DIRECTION('center_axis',(0.,1.,0.));
#1427=DIRECTION('ref_axis',(1.,0.,0.));
#1428=DIRECTION('',(-1.,0.,0.));
#1429=DIRECTION('',(0.,0.,-1.));
#1430=DIRECTION('',(1.,0.,0.));
#1431=DIRECTION('',(0.,0.,-1.));
#1432=DIRECTION('center_axis',(0.,0.,-1.));
#1433=DIRECTION('ref_axis',(-1.,0.,0.));
#1434=DIRECTION('',(0.,1.,0.));
#1435=DIRECTION('',(0.,-1.,0.));
#1436=DIRECTION('center_axis',(0.,0.,1.));
#1437=DIRECTION('ref_axis',(1.,0.,0.));
#1438=DIRECTION('',(0.,1.,0.));
#1439=DIRECTION('',(0.,-1.,0.));
#1440=DIRECTION('center_axis',(0.,1.,0.));
#1441=DIRECTION('ref_axis',(1.,0.,0.));
#1442=DIRECTION('',(-1.,0.,0.));
#1443=DIRECTION('',(0.,0.,-1.));
#1444=DIRECTION('',(1.,0.,0.));
#1445=DIRECTION('',(0.,0.,-1.));
#1446=DIRECTION('center_axis',(0.,-1.,0.));
#1447=DIRECTION('ref_axis',(-1.,0.,0.));
#1448=DIRECTION('',(1.,0.,0.));
#1449=DIRECTION('',(0.,0.,-1.));
#1450=DIRECTION('',(-1.,0.,0.));
#1451=DIRECTION('',(0.,0.,-1.));
#1452=DIRECTION('center_axis',(0.,0.,-1.));
#1453=DIRECTION('ref_axis',(-1.,0.,0.));
#1454=DIRECTION('',(0.,-1.,0.));
#1455=DIRECTION('',(0.,1.,0.));
#1456=DIRECTION('center_axis',(0.,0.,1.));
#1457=DIRECTION('ref_axis',(1.,0.,0.));
#1458=DIRECTION('',(0.,-1.,0.));
#1459=DIRECTION('',(0.,1.,0.));
#1460=DIRECTION('center_axis',(1.,0.,0.));
#1461=DIRECTION('ref_axis',(0.,-1.,0.));
#1462=DIRECTION('',(0.,0.,-1.));
#1463=DIRECTION('',(0.,-1.,0.));
#1464=DIRECTION('',(0.,0.,-1.));
#1465=DIRECTION('',(0.,1.,0.));
#1466=DIRECTION('center_axis',(0.,1.,0.));
#1467=DIRECTION('ref_axis',(1.,0.,0.));
#1468=DIRECTION('',(1.,0.,0.));
#1469=DIRECTION('',(0.,0.,-1.));
#1470=DIRECTION('',(-1.,0.,0.));
#1471=DIRECTION('center_axis',(-1.,0.,0.));
#1472=DIRECTION('ref_axis',(0.,1.,0.));
#1473=DIRECTION('',(0.,0.,-1.));
#1474=DIRECTION('',(0.,-1.,0.));
#1475=DIRECTION('',(0.,1.,0.));
#1476=DIRECTION('center_axis',(0.,-1.,0.));
#1477=DIRECTION('ref_axis',(-1.,0.,0.));
#1478=DIRECTION('',(-1.,0.,0.));
#1479=DIRECTION('',(1.,0.,0.));
#1480=DIRECTION('center_axis',(-1.,0.,0.));
#1481=DIRECTION('ref_axis',(0.,1.,0.));
#1482=DIRECTION('',(0.,0.,-1.));
#1483=DIRECTION('',(0.,1.,0.));
#1484=DIRECTION('',(0.,0.,-1.));
#1485=DIRECTION('',(0.,-1.,0.));
#1486=DIRECTION('center_axis',(0.,-1.,0.));
#1487=DIRECTION('ref_axis',(-1.,0.,0.));
#1488=DIRECTION('',(-1.,0.,0.));
#1489=DIRECTION('',(0.,0.,-1.));
#1490=DIRECTION('',(1.,0.,0.));
#1491=DIRECTION('center_axis',(1.,0.,0.));
#1492=DIRECTION('ref_axis',(0.,-1.,0.));
#1493=DIRECTION('',(0.,0.,-1.));
#1494=DIRECTION('',(0.,1.,0.));
#1495=DIRECTION('',(0.,-1.,0.));
#1496=DIRECTION('center_axis',(0.,1.,0.));
#1497=DIRECTION('ref_axis',(1.,0.,0.));
#1498=DIRECTION('',(1.,0.,0.));
#1499=DIRECTION('',(-1.,0.,0.));
#1500=DIRECTION('center_axis',(1.,0.,0.));
#1501=DIRECTION('ref_axis',(0.,-1.,0.));
#1502=DIRECTION('',(0.,0.,-1.));
#1503=DIRECTION('',(0.,-1.,0.));
#1504=DIRECTION('',(0.,0.,-1.));
#1505=DIRECTION('',(0.,1.,0.));
#1506=DIRECTION('center_axis',(0.,1.,0.));
#1507=DIRECTION('ref_axis',(1.,0.,0.));
#1508=DIRECTION('',(1.,0.,0.));
#1509=DIRECTION('',(0.,0.,-1.));
#1510=DIRECTION('',(-1.,0.,0.));
#1511=DIRECTION('center_axis',(-1.,0.,0.));
#1512=DIRECTION('ref_axis',(0.,1.,0.));
#1513=DIRECTION('',(0.,0.,-1.));
#1514=DIRECTION('',(0.,-1.,0.));
#1515=DIRECTION('',(0.,1.,0.));
#1516=DIRECTION('center_axis',(0.,-1.,0.));
#1517=DIRECTION('ref_axis',(-1.,0.,0.));
#1518=DIRECTION('',(-1.,0.,0.));
#1519=DIRECTION('',(1.,0.,0.));
#1520=DIRECTION('center_axis',(-1.,0.,0.));
#1521=DIRECTION('ref_axis',(0.,-1.,0.));
#1522=DIRECTION('',(0.,0.,-1.));
#1523=DIRECTION('',(0.,1.,0.));
#1524=DIRECTION('',(0.,0.,1.));
#1525=DIRECTION('',(0.,1.,0.));
#1526=DIRECTION('',(0.,0.,-1.));
#1527=DIRECTION('',(0.,1.,0.));
#1528=DIRECTION('',(0.,0.,1.));
#1529=DIRECTION('',(0.,1.,0.));
#1530=DIRECTION('center_axis',(0.,0.,-1.));
#1531=DIRECTION('ref_axis',(-1.,0.,0.));
#1532=DIRECTION('center_axis',(0.,0.,-1.));
#1533=DIRECTION('ref_axis',(-1.,0.,0.));
#1534=DIRECTION('',(0.,0.,-1.));
#1535=DIRECTION('center_axis',(0.,0.,-1.));
#1536=DIRECTION('ref_axis',(-1.,0.,0.));
#1537=DIRECTION('center_axis',(0.,0.,1.));
#1538=DIRECTION('ref_axis',(-1.,0.,0.));
#1539=DIRECTION('center_axis',(0.,0.,-1.));
#1540=DIRECTION('ref_axis',(-1.,0.,0.));
#1541=DIRECTION('center_axis',(0.,0.,-1.));
#1542=DIRECTION('ref_axis',(-1.,0.,0.));
#1543=DIRECTION('',(0.,0.,-1.));
#1544=DIRECTION('center_axis',(0.,0.,-1.));
#1545=DIRECTION('ref_axis',(-1.,0.,0.));
#1546=DIRECTION('center_axis',(0.,0.,1.));
#1547=DIRECTION('ref_axis',(-1.,0.,0.));
#1548=DIRECTION('center_axis',(0.,0.,-1.));
#1549=DIRECTION('ref_axis',(-1.,0.,0.));
#1550=DIRECTION('center_axis',(0.,0.,-1.));
#1551=DIRECTION('ref_axis',(-1.,0.,0.));
#1552=DIRECTION('',(0.,0.,-1.));
#1553=DIRECTION('center_axis',(0.,0.,-1.));
#1554=DIRECTION('ref_axis',(-1.,0.,0.));
#1555=DIRECTION('center_axis',(0.,0.,1.));
#1556=DIRECTION('ref_axis',(-1.,0.,0.));
#1557=DIRECTION('center_axis',(0.,0.,-1.));
#1558=DIRECTION('ref_axis',(-1.,0.,0.));
#1559=DIRECTION('center_axis',(0.,0.,-1.));
#1560=DIRECTION('ref_axis',(-1.,0.,0.));
#1561=DIRECTION('',(0.,0.,-1.));
#1562=DIRECTION('center_axis',(0.,0.,-1.));
#1563=DIRECTION('ref_axis',(-1.,0.,0.));
#1564=DIRECTION('center_axis',(0.,0.,1.));
#1565=DIRECTION('ref_axis',(-1.,0.,0.));
#1566=DIRECTION('center_axis',(2.30655753038467E-17,-1.,0.));
#1567=DIRECTION('ref_axis',(-1.,-2.30655753038467E-17,0.));
#1568=DIRECTION('',(-1.,-2.30655753038467E-17,0.));
#1569=DIRECTION('',(0.,0.,-1.));
#1570=DIRECTION('',(-1.,-2.30655753038467E-17,0.));
#1571=DIRECTION('',(0.,0.,-1.));
#1572=DIRECTION('center_axis',(0.,0.,-1.));
#1573=DIRECTION('ref_axis',(-1.,0.,0.));
#1574=DIRECTION('',(0.,-1.,0.));
#1575=DIRECTION('',(1.,4.38823329891366E-17,0.));
#1576=DIRECTION('',(0.,1.,0.));
#1577=DIRECTION('center_axis',(0.,0.,1.));
#1578=DIRECTION('ref_axis',(1.,0.,0.));
#1579=DIRECTION('',(-1.,0.,0.));
#1580=DIRECTION('',(-1.,0.,0.));
#1581=DIRECTION('',(0.,-1.,0.));
#1582=DIRECTION('',(1.,0.,0.));
#1583=DIRECTION('',(1.,0.,0.));
#1584=DIRECTION('',(0.,-1.,0.));
#1585=DIRECTION('',(0.,-1.,0.));
#1586=DIRECTION('',(0.,1.,0.));
#1587=DIRECTION('',(1.,0.,0.));
#1588=DIRECTION('center_axis',(0.,-1.,0.));
#1589=DIRECTION('ref_axis',(-1.,0.,0.));
#1590=DIRECTION('',(0.,0.,-1.));
#1591=DIRECTION('',(-1.,0.,0.));
#1592=DIRECTION('center_axis',(1.,0.,0.));
#1593=DIRECTION('ref_axis',(0.,-1.,0.));
#1594=DIRECTION('',(0.,0.,-1.));
#1595=DIRECTION('',(0.,-1.,0.));
#1596=DIRECTION('center_axis',(0.,1.,0.));
#1597=DIRECTION('ref_axis',(1.,0.,0.));
#1598=DIRECTION('',(1.,0.,0.));
#1599=DIRECTION('center_axis',(0.,0.,-1.));
#1600=DIRECTION('ref_axis',(-1.,0.,0.));
#1601=DIRECTION('center_axis',(0.,1.,0.));
#1602=DIRECTION('ref_axis',(1.,0.,0.));
#1603=DIRECTION('',(-1.,0.,0.));
#1604=DIRECTION('',(0.,0.,-1.));
#1605=DIRECTION('',(0.,0.,-1.));
#1606=DIRECTION('center_axis',(-1.,0.,0.));
#1607=DIRECTION('ref_axis',(0.,1.,0.));
#1608=DIRECTION('',(0.,-1.,0.));
#1609=DIRECTION('',(0.,0.,-1.));
#1610=DIRECTION('center_axis',(4.38823329891366E-17,-1.,0.));
#1611=DIRECTION('ref_axis',(-1.,-4.38823329891366E-17,0.));
#1612=DIRECTION('',(0.,0.,-1.));
#1613=DIRECTION('',(1.,4.38823329891366E-17,0.));
#1614=DIRECTION('center_axis',(1.,0.,0.));
#1615=DIRECTION('ref_axis',(0.,-1.,0.));
#1616=DIRECTION('',(0.,1.,0.));
#1617=DIRECTION('center_axis',(0.,1.,0.));
#1618=DIRECTION('ref_axis',(-1.,0.,0.));
#1619=DIRECTION('',(1.,0.,0.));
#1620=DIRECTION('',(0.,0.,-1.));
#1621=DIRECTION('center_axis',(1.,0.,0.));
#1622=DIRECTION('ref_axis',(0.,1.,0.));
#1623=DIRECTION('',(0.,-1.,0.));
#1624=DIRECTION('',(0.,0.,1.));
#1625=DIRECTION('center_axis',(0.,-1.,0.));
#1626=DIRECTION('ref_axis',(1.,0.,0.));
#1627=DIRECTION('',(-1.,0.,0.));
#1628=DIRECTION('center_axis',(0.,1.,0.));
#1629=DIRECTION('ref_axis',(-1.,0.,0.));
#1630=DIRECTION('',(-1.,0.,0.));
#1631=DIRECTION('',(0.,0.,1.));
#1632=DIRECTION('',(-1.,0.,0.));
#1633=DIRECTION('',(0.,0.,1.));
#1634=DIRECTION('center_axis',(1.,0.,0.));
#1635=DIRECTION('ref_axis',(0.,1.,0.));
#1636=DIRECTION('',(0.,1.,0.));
#1637=DIRECTION('',(0.,1.,0.));
#1638=DIRECTION('',(0.,0.,1.));
#1639=DIRECTION('center_axis',(0.,-1.,0.));
#1640=DIRECTION('ref_axis',(1.,0.,0.));
#1641=DIRECTION('',(1.,0.,0.));
#1642=DIRECTION('',(1.,0.,0.));
#1643=DIRECTION('',(0.,0.,1.));
#1644=DIRECTION('center_axis',(-1.,0.,0.));
#1645=DIRECTION('ref_axis',(0.,-1.,0.));
#1646=DIRECTION('',(0.,-1.,0.));
#1647=DIRECTION('',(0.,-1.,0.));
#1648=DIRECTION('center_axis',(0.,0.,1.));
#1649=DIRECTION('ref_axis',(1.,0.,0.));
#1650=DIRECTION('center_axis',(0.,0.,1.));
#1651=DIRECTION('ref_axis',(1.,0.,0.));
#1652=CARTESIAN_POINT('',(0.,0.,0.));
#1653=CARTESIAN_POINT('Origin',(-2.5,-2.50000062584876,0.));
#1654=CARTESIAN_POINT('',(-4.65,-2.50000062584876,0.));
#1655=CARTESIAN_POINT('Origin',(-2.5,-2.50000062584876,0.));
#1656=CARTESIAN_POINT('',(-4.65,-2.50000062584876,2.));
#1657=CARTESIAN_POINT('',(-4.65,-2.50000062584876,0.));
#1658=CARTESIAN_POINT('Origin',(-2.5,-2.50000062584876,2.));
#1659=CARTESIAN_POINT('Origin',(-2.5,-2.50000062584876,2.));
#1660=CARTESIAN_POINT('',(-3.24999999999999,-2.50000062584876,2.));
#1661=CARTESIAN_POINT('Origin',(-2.5,-2.50000062584876,2.));
#1662=CARTESIAN_POINT('Origin',(59.5,-2.50000062584876,0.));
#1663=CARTESIAN_POINT('',(57.35,-2.50000062584876,0.));
#1664=CARTESIAN_POINT('Origin',(59.5,-2.50000062584876,0.));
#1665=CARTESIAN_POINT('',(57.35,-2.50000062584876,2.));
#1666=CARTESIAN_POINT('',(57.35,-2.50000062584876,0.));
#1667=CARTESIAN_POINT('Origin',(59.5,-2.50000062584876,2.));
#1668=CARTESIAN_POINT('Origin',(59.5,-2.50000062584876,2.));
#1669=CARTESIAN_POINT('',(58.75,-2.50000062584876,2.));
#1670=CARTESIAN_POINT('Origin',(59.5,-2.50000062584876,2.));
#1671=CARTESIAN_POINT('Origin',(-2.5,86.5000006258488,0.));
#1672=CARTESIAN_POINT('',(-4.65,86.5000006258488,0.));
#1673=CARTESIAN_POINT('Origin',(-2.5,86.5000006258488,0.));
#1674=CARTESIAN_POINT('',(-4.65,86.5000006258488,2.));
#1675=CARTESIAN_POINT('',(-4.65,86.5000006258488,0.));
#1676=CARTESIAN_POINT('Origin',(-2.5,86.5000006258488,2.));
#1677=CARTESIAN_POINT('Origin',(-2.5,86.5000006258488,2.));
#1678=CARTESIAN_POINT('',(-3.24999999999999,86.5000006258488,2.));
#1679=CARTESIAN_POINT('Origin',(-2.5,86.5000006258488,2.));
#1680=CARTESIAN_POINT('Origin',(59.5,86.5000006258488,0.));
#1681=CARTESIAN_POINT('',(57.35,86.5000006258488,0.));
#1682=CARTESIAN_POINT('Origin',(59.5,86.5000006258488,0.));
#1683=CARTESIAN_POINT('',(57.35,86.5000006258488,2.));
#1684=CARTESIAN_POINT('',(57.35,86.5000006258488,0.));
#1685=CARTESIAN_POINT('Origin',(59.5,86.5000006258488,2.));
#1686=CARTESIAN_POINT('Origin',(59.5,86.5000006258488,2.));
#1687=CARTESIAN_POINT('',(58.75,86.5000006258488,2.));
#1688=CARTESIAN_POINT('Origin',(59.5,86.5000006258488,2.));
#1689=CARTESIAN_POINT('Origin',(59.5,-2.50000062584876,0.));
#1690=CARTESIAN_POINT('',(58.75,-2.50000062584876,3.));
#1691=CARTESIAN_POINT('',(58.75,-2.50000062584876,0.));
#1692=CARTESIAN_POINT('Origin',(59.5,-2.50000062584876,3.));
#1693=CARTESIAN_POINT('Origin',(-2.5,86.5000006258488,0.));
#1694=CARTESIAN_POINT('',(-3.24999999999999,86.5000006258488,3.));
#1695=CARTESIAN_POINT('',(-3.24999999999999,86.5000006258488,0.));
#1696=CARTESIAN_POINT('Origin',(-2.5,86.5000006258488,3.));
#1697=CARTESIAN_POINT('Origin',(-2.5,-2.50000062584876,0.));
#1698=CARTESIAN_POINT('',(-3.24999999999999,-2.50000062584876,3.));
#1699=CARTESIAN_POINT('',(-3.24999999999999,-2.50000062584876,0.));
#1700=CARTESIAN_POINT('Origin',(-2.5,-2.50000062584876,3.));
#1701=CARTESIAN_POINT('Origin',(59.5,86.5000006258488,0.));
#1702=CARTESIAN_POINT('',(58.75,86.5000006258488,3.));
#1703=CARTESIAN_POINT('',(58.75,86.5000006258488,0.));
#1704=CARTESIAN_POINT('Origin',(59.5,86.5000006258488,3.));
#1705=CARTESIAN_POINT('Origin',(38.65,63.,8.));
#1706=CARTESIAN_POINT('',(50.65,63.,5.));
#1707=CARTESIAN_POINT('',(38.65,63.,5.));
#1708=CARTESIAN_POINT('',(41.65,63.,5.));
#1709=CARTESIAN_POINT('',(50.65,63.,8.));
#1710=CARTESIAN_POINT('',(50.65,63.,8.));
#1711=CARTESIAN_POINT('',(38.65,63.,8.));
#1712=CARTESIAN_POINT('',(41.65,63.,8.));
#1713=CARTESIAN_POINT('',(38.65,63.,8.));
#1714=CARTESIAN_POINT('Origin',(50.65,71.,8.));
#1715=CARTESIAN_POINT('',(38.65,71.,5.));
#1716=CARTESIAN_POINT('',(50.65,71.,5.));
#1717=CARTESIAN_POINT('',(47.65,71.,5.));
#1718=CARTESIAN_POINT('',(38.65,71.,8.));
#1719=CARTESIAN_POINT('',(38.65,71.,8.));
#1720=CARTESIAN_POINT('',(50.65,71.,8.));
#1721=CARTESIAN_POINT('',(47.65,71.,8.));
#1722=CARTESIAN_POINT('',(50.65,71.,8.));
#1723=CARTESIAN_POINT('Origin',(44.65,67.,8.));
#1724=CARTESIAN_POINT('',(50.65,74.5,8.));
#1725=CARTESIAN_POINT('',(38.65,59.5,8.));
#1726=CARTESIAN_POINT('Origin',(44.65,67.,5.));
#1727=CARTESIAN_POINT('',(38.65,74.5,5.));
#1728=CARTESIAN_POINT('',(50.65,74.5,5.));
#1729=CARTESIAN_POINT('Origin',(50.65,51.,8.));
#1730=CARTESIAN_POINT('',(38.65,51.,5.));
#1731=CARTESIAN_POINT('',(50.65,51.,5.));
#1732=CARTESIAN_POINT('',(47.65,51.,5.));
#1733=CARTESIAN_POINT('',(38.65,51.,8.));
#1734=CARTESIAN_POINT('',(38.65,51.,8.));
#1735=CARTESIAN_POINT('',(50.65,51.,8.));
#1736=CARTESIAN_POINT('',(47.65,51.,8.));
#1737=CARTESIAN_POINT('',(50.65,51.,8.));
#1738=CARTESIAN_POINT('Origin',(38.65,43.,8.));
#1739=CARTESIAN_POINT('',(50.65,43.,5.));
#1740=CARTESIAN_POINT('',(38.65,43.,5.));
#1741=CARTESIAN_POINT('',(41.65,43.,5.));
#1742=CARTESIAN_POINT('',(50.65,43.,8.));
#1743=CARTESIAN_POINT('',(50.65,43.,8.));
#1744=CARTESIAN_POINT('',(38.65,43.,8.));
#1745=CARTESIAN_POINT('',(41.65,43.,8.));
#1746=CARTESIAN_POINT('',(38.65,43.,8.));
#1747=CARTESIAN_POINT('Origin',(44.65,47.,8.));
#1748=CARTESIAN_POINT('',(38.65,39.5,8.));
#1749=CARTESIAN_POINT('',(50.65,54.5,8.));
#1750=CARTESIAN_POINT('Origin',(44.65,47.,5.));
#1751=CARTESIAN_POINT('',(50.65,54.5,5.));
#1752=CARTESIAN_POINT('',(38.65,54.5,5.));
#1753=CARTESIAN_POINT('Origin',(38.65,13.,8.));
#1754=CARTESIAN_POINT('',(50.65,13.,5.));
#1755=CARTESIAN_POINT('',(38.65,13.,5.));
#1756=CARTESIAN_POINT('',(41.65,13.,5.));
#1757=CARTESIAN_POINT('',(50.65,13.,8.));
#1758=CARTESIAN_POINT('',(50.65,13.,8.));
#1759=CARTESIAN_POINT('',(38.65,13.,8.));
#1760=CARTESIAN_POINT('',(41.65,13.,8.));
#1761=CARTESIAN_POINT('',(38.65,13.,8.));
#1762=CARTESIAN_POINT('Origin',(50.65,21.,8.));
#1763=CARTESIAN_POINT('',(38.65,21.,5.));
#1764=CARTESIAN_POINT('',(50.65,21.,5.));
#1765=CARTESIAN_POINT('',(47.65,21.,5.));
#1766=CARTESIAN_POINT('',(38.65,21.,8.));
#1767=CARTESIAN_POINT('',(38.65,21.,8.));
#1768=CARTESIAN_POINT('',(50.65,21.,8.));
#1769=CARTESIAN_POINT('',(47.65,21.,8.));
#1770=CARTESIAN_POINT('',(50.65,21.,8.));
#1771=CARTESIAN_POINT('Origin',(44.65,17.,8.));
#1772=CARTESIAN_POINT('',(50.65,24.5,8.));
#1773=CARTESIAN_POINT('',(38.65,9.5,8.));
#1774=CARTESIAN_POINT('Origin',(44.65,17.,5.));
#1775=CARTESIAN_POINT('',(38.65,24.5,5.));
#1776=CARTESIAN_POINT('',(50.65,24.5,5.));
#1777=CARTESIAN_POINT('Origin',(50.65,74.5,10.));
#1778=CARTESIAN_POINT('',(50.65,59.5,10.));
#1779=CARTESIAN_POINT('',(50.65,59.5,0.));
#1780=CARTESIAN_POINT('',(50.65,59.5,10.));
#1781=CARTESIAN_POINT('',(50.65,74.5,10.));
#1782=CARTESIAN_POINT('',(50.65,58.25,10.));
#1783=CARTESIAN_POINT('',(50.65,74.5,0.));
#1784=CARTESIAN_POINT('',(50.65,74.5,10.));
#1785=CARTESIAN_POINT('',(50.65,50.75,0.));
#1786=CARTESIAN_POINT('Origin',(38.65,74.5,10.));
#1787=CARTESIAN_POINT('',(38.65,74.5,10.));
#1788=CARTESIAN_POINT('',(33.575,74.5,10.));
#1789=CARTESIAN_POINT('',(38.65,74.5,0.));
#1790=CARTESIAN_POINT('',(38.65,74.5,10.));
#1791=CARTESIAN_POINT('',(39.575,74.5,0.));
#1792=CARTESIAN_POINT('Origin',(38.65,59.5,10.));
#1793=CARTESIAN_POINT('',(38.65,59.5,10.));
#1794=CARTESIAN_POINT('',(38.65,59.5,0.));
#1795=CARTESIAN_POINT('',(38.65,59.5,10.));
#1796=CARTESIAN_POINT('',(38.65,58.25,0.));
#1797=CARTESIAN_POINT('',(38.65,50.75,10.));
#1798=CARTESIAN_POINT('Origin',(50.65,59.5,10.));
#1799=CARTESIAN_POINT('',(39.575,59.5,10.));
#1800=CARTESIAN_POINT('',(33.575,59.5,0.));
#1801=CARTESIAN_POINT('Origin',(38.65,39.5,10.));
#1802=CARTESIAN_POINT('',(38.65,54.5,10.));
#1803=CARTESIAN_POINT('',(38.65,54.5,0.));
#1804=CARTESIAN_POINT('',(38.65,54.5,10.));
#1805=CARTESIAN_POINT('',(38.65,39.5,10.));
#1806=CARTESIAN_POINT('',(38.65,40.75,10.));
#1807=CARTESIAN_POINT('',(38.65,39.5,0.));
#1808=CARTESIAN_POINT('',(38.65,39.5,10.));
#1809=CARTESIAN_POINT('',(38.65,48.25,0.));
#1810=CARTESIAN_POINT('Origin',(50.65,39.5,10.));
#1811=CARTESIAN_POINT('',(50.65,39.5,10.));
#1812=CARTESIAN_POINT('',(39.575,39.5,10.));
#1813=CARTESIAN_POINT('',(50.65,39.5,0.));
#1814=CARTESIAN_POINT('',(50.65,39.5,10.));
#1815=CARTESIAN_POINT('',(33.575,39.5,0.));
#1816=CARTESIAN_POINT('Origin',(50.65,54.5,10.));
#1817=CARTESIAN_POINT('',(50.65,54.5,10.));
#1818=CARTESIAN_POINT('',(50.65,54.5,0.));
#1819=CARTESIAN_POINT('',(50.65,54.5,10.));
#1820=CARTESIAN_POINT('',(50.65,40.75,0.));
#1821=CARTESIAN_POINT('',(50.65,48.25,10.));
#1822=CARTESIAN_POINT('Origin',(38.65,54.5,10.));
#1823=CARTESIAN_POINT('',(33.575,54.5,10.));
#1824=CARTESIAN_POINT('',(39.575,54.5,0.));
#1825=CARTESIAN_POINT('Origin',(50.65,24.5,10.));
#1826=CARTESIAN_POINT('',(50.65,9.5,10.));
#1827=CARTESIAN_POINT('',(50.65,9.5,0.));
#1828=CARTESIAN_POINT('',(50.65,9.5,10.));
#1829=CARTESIAN_POINT('',(50.65,24.5,10.));
#1830=CARTESIAN_POINT('',(50.65,33.25,10.));
#1831=CARTESIAN_POINT('',(50.65,24.5,0.));
#1832=CARTESIAN_POINT('',(50.65,24.5,10.));
#1833=CARTESIAN_POINT('',(50.65,25.75,0.));
#1834=CARTESIAN_POINT('Origin',(38.65,24.5,10.));
#1835=CARTESIAN_POINT('',(38.65,24.5,10.));
#1836=CARTESIAN_POINT('',(33.575,24.5,10.));
#1837=CARTESIAN_POINT('',(38.65,24.5,0.));
#1838=CARTESIAN_POINT('',(38.65,24.5,10.));
#1839=CARTESIAN_POINT('',(39.575,24.5,0.));
#1840=CARTESIAN_POINT('Origin',(38.65,9.5,10.));
#1841=CARTESIAN_POINT('',(38.65,9.5,10.));
#1842=CARTESIAN_POINT('',(38.65,9.5,0.));
#1843=CARTESIAN_POINT('',(38.65,9.5,10.));
#1844=CARTESIAN_POINT('',(38.65,33.25,0.));
#1845=CARTESIAN_POINT('',(38.65,25.75,10.));
#1846=CARTESIAN_POINT('Origin',(50.65,9.5,10.));
#1847=CARTESIAN_POINT('',(39.575,9.5,10.));
#1848=CARTESIAN_POINT('',(33.575,9.5,0.));
#1849=CARTESIAN_POINT('Origin',(0.1,84.,3.));
#1850=CARTESIAN_POINT('',(0.0999999999999997,34.05,10.));
#1851=CARTESIAN_POINT('',(0.0999999999999997,34.05,7.));
#1852=CARTESIAN_POINT('',(0.1,34.05,6.5));
#1853=CARTESIAN_POINT('',(0.099999999999999,77.05,7.));
#1854=CARTESIAN_POINT('',(0.1,69.775,7.));
#1855=CARTESIAN_POINT('',(0.099999999999999,77.05,10.));
#1856=CARTESIAN_POINT('',(0.1,77.05,6.5));
#1857=CARTESIAN_POINT('',(0.099999999999999,83.9,10.));
#1858=CARTESIAN_POINT('',(0.0999999999999979,63.,10.));
#1859=CARTESIAN_POINT('',(0.099999999999999,83.9,3.));
#1860=CARTESIAN_POINT('',(0.0999999999999979,83.9,3.));
#1861=CARTESIAN_POINT('',(0.1,0.0999999999999979,3.));
#1862=CARTESIAN_POINT('',(0.0999999999999979,63.,3.));
#1863=CARTESIAN_POINT('',(0.1,0.0999999999999979,10.));
#1864=CARTESIAN_POINT('',(0.1,0.0999999999999979,3.));
#1865=CARTESIAN_POINT('',(0.0999999999999979,63.,10.));
#1866=CARTESIAN_POINT('Origin',(34.75,4.4,10.));
#1867=CARTESIAN_POINT('',(35.25,4.4,10.));
#1868=CARTESIAN_POINT('Origin',(34.75,4.4,10.));
#1869=CARTESIAN_POINT('',(35.25,4.4,1.));
#1870=CARTESIAN_POINT('',(35.25,4.4,10.));
#1871=CARTESIAN_POINT('Origin',(34.75,4.4,1.));
#1872=CARTESIAN_POINT('Origin',(34.75,4.4,1.));
#1873=CARTESIAN_POINT('Origin',(3.55,79.6,10.));
#1874=CARTESIAN_POINT('',(4.05,79.6,10.));
#1875=CARTESIAN_POINT('Origin',(3.55,79.6,10.));
#1876=CARTESIAN_POINT('',(4.05,79.6,1.));
#1877=CARTESIAN_POINT('',(4.05,79.6,10.));
#1878=CARTESIAN_POINT('Origin',(3.55,79.6,1.));
#1879=CARTESIAN_POINT('Origin',(3.55,79.6,1.));
#1880=CARTESIAN_POINT('Origin',(3.55,4.4,10.));
#1881=CARTESIAN_POINT('',(4.05,4.4,10.));
#1882=CARTESIAN_POINT('Origin',(3.55,4.4,10.));
#1883=CARTESIAN_POINT('',(4.05,4.4,1.));
#1884=CARTESIAN_POINT('',(4.05,4.4,10.));
#1885=CARTESIAN_POINT('Origin',(3.55,4.4,1.));
#1886=CARTESIAN_POINT('Origin',(3.55,4.4,1.));
#1887=CARTESIAN_POINT('Origin',(34.75,79.6,10.));
#1888=CARTESIAN_POINT('',(35.25,79.6,10.));
#1889=CARTESIAN_POINT('Origin',(34.75,79.6,10.));
#1890=CARTESIAN_POINT('',(35.25,79.6,1.));
#1891=CARTESIAN_POINT('',(35.25,79.6,10.));
#1892=CARTESIAN_POINT('Origin',(34.75,79.6,1.));
#1893=CARTESIAN_POINT('Origin',(34.75,79.6,1.));
#1894=CARTESIAN_POINT('Origin',(32.4,1.95,10.));
#1895=CARTESIAN_POINT('',(32.4,1.95,10.));
#1896=CARTESIAN_POINT('',(7.1,1.95,10.));
#1897=CARTESIAN_POINT('',(30.45,1.95,10.));
#1898=CARTESIAN_POINT('',(32.4,1.95,6.));
#1899=CARTESIAN_POINT('',(32.4,1.95,10.));
#1900=CARTESIAN_POINT('',(7.1,1.95,6.));
#1901=CARTESIAN_POINT('',(1.1,1.95,6.));
#1902=CARTESIAN_POINT('',(7.1,1.95,10.));
#1903=CARTESIAN_POINT('Origin',(19.75,3.7,6.));
#1904=CARTESIAN_POINT('',(32.4,5.45,6.));
#1905=CARTESIAN_POINT('',(32.4,5.85,6.));
#1906=CARTESIAN_POINT('',(7.1,5.45,6.));
#1907=CARTESIAN_POINT('',(26.075,5.45,6.));
#1908=CARTESIAN_POINT('',(7.1,5.85,6.));
#1909=CARTESIAN_POINT('Origin',(28.5,42.,10.));
#1910=CARTESIAN_POINT('',(6.1,34.05,10.));
#1911=CARTESIAN_POINT('',(17.3,34.05,10.));
#1912=CARTESIAN_POINT('',(56.9,0.099999999999999,10.));
#1913=CARTESIAN_POINT('',(14.25,0.0999999999999979,10.));
#1914=CARTESIAN_POINT('',(56.9,83.9,10.));
#1915=CARTESIAN_POINT('',(56.9,21.,10.));
#1916=CARTESIAN_POINT('',(42.75,83.9,10.));
#1917=CARTESIAN_POINT('',(6.1,77.05,10.));
#1918=CARTESIAN_POINT('',(14.8,77.05,10.));
#1919=CARTESIAN_POINT('',(6.1,59.525,10.));
#1920=CARTESIAN_POINT('',(32.4,78.45,10.));
#1921=CARTESIAN_POINT('',(32.4,23.725,10.));
#1922=CARTESIAN_POINT('',(7.1,78.45,10.));
#1923=CARTESIAN_POINT('',(7.1,21.975,10.));
#1924=CARTESIAN_POINT('',(17.8,78.45,10.));
#1925=CARTESIAN_POINT('Origin',(6.1,34.05,10.));
#1926=CARTESIAN_POINT('',(6.1,34.05,7.));
#1927=CARTESIAN_POINT('',(6.1,34.05,10.));
#1928=CARTESIAN_POINT('',(1.1,34.05,7.));
#1929=CARTESIAN_POINT('Origin',(6.1,77.05,10.));
#1930=CARTESIAN_POINT('',(6.1,77.05,7.));
#1931=CARTESIAN_POINT('',(6.1,77.05,10.));
#1932=CARTESIAN_POINT('',(6.1,77.05,7.));
#1933=CARTESIAN_POINT('Origin',(1.1,77.05,10.));
#1934=CARTESIAN_POINT('',(1.1,77.05,7.));
#1935=CARTESIAN_POINT('Origin',(3.6,55.55,7.));
#1936=CARTESIAN_POINT('Origin',(7.1,78.45,10.));
#1937=CARTESIAN_POINT('',(32.4,78.45,0.));
#1938=CARTESIAN_POINT('',(7.1,78.45,0.));
#1939=CARTESIAN_POINT('',(17.8,78.45,0.));
#1940=CARTESIAN_POINT('',(32.4,78.45,10.));
#1941=CARTESIAN_POINT('',(7.1,78.45,10.));
#1942=CARTESIAN_POINT('Origin',(7.1,5.45,10.));
#1943=CARTESIAN_POINT('',(7.1,5.45,0.));
#1944=CARTESIAN_POINT('',(7.1,23.725,0.));
#1945=CARTESIAN_POINT('',(7.1,5.45,10.));
#1946=CARTESIAN_POINT('Origin',(32.4,5.45,10.));
#1947=CARTESIAN_POINT('',(32.4,5.45,0.));
#1948=CARTESIAN_POINT('',(32.4,5.45,10.));
#1949=CARTESIAN_POINT('',(30.45,5.45,0.));
#1950=CARTESIAN_POINT('Origin',(32.4,78.45,10.));
#1951=CARTESIAN_POINT('',(32.4,60.225,0.));
#1952=CARTESIAN_POINT('Origin',(57.,83.9,3.));
#1953=CARTESIAN_POINT('',(56.9,83.9,3.));
#1954=CARTESIAN_POINT('',(42.75,83.9,3.));
#1955=CARTESIAN_POINT('',(56.9,83.9,3.));
#1956=CARTESIAN_POINT('Origin',(56.9,0.,3.));
#1957=CARTESIAN_POINT('',(56.9,0.099999999999999,3.));
#1958=CARTESIAN_POINT('',(56.9,21.,3.));
#1959=CARTESIAN_POINT('',(56.9,0.1,3.));
#1960=CARTESIAN_POINT('Origin',(0.,0.1,3.));
#1961=CARTESIAN_POINT('',(14.25,0.0999999999999979,3.));
#1962=CARTESIAN_POINT('Origin',(62.,89.,0.));
#1963=CARTESIAN_POINT('',(62.,89.,0.));
#1964=CARTESIAN_POINT('',(-5.,89.,0.));
#1965=CARTESIAN_POINT('',(62.,89.,0.));
#1966=CARTESIAN_POINT('',(-5.,89.,3.));
#1967=CARTESIAN_POINT('',(-5.,89.,0.));
#1968=CARTESIAN_POINT('',(62.,89.,3.));
#1969=CARTESIAN_POINT('',(62.,89.,3.));
#1970=CARTESIAN_POINT('',(62.,89.,0.));
#1971=CARTESIAN_POINT('Origin',(62.,-5.,0.));
#1972=CARTESIAN_POINT('',(62.,-5.,0.));
#1973=CARTESIAN_POINT('',(62.,-5.,0.));
#1974=CARTESIAN_POINT('',(62.,-5.,3.));
#1975=CARTESIAN_POINT('',(62.,-5.,3.));
#1976=CARTESIAN_POINT('',(62.,-5.,0.));
#1977=CARTESIAN_POINT('Origin',(-5.,-5.,0.));
#1978=CARTESIAN_POINT('',(-5.,-5.,0.));
#1979=CARTESIAN_POINT('',(-5.,-5.,0.));
#1980=CARTESIAN_POINT('',(-5.,-5.,3.));
#1981=CARTESIAN_POINT('',(-5.,-5.,3.));
#1982=CARTESIAN_POINT('',(-5.,-5.,0.));
#1983=CARTESIAN_POINT('Origin',(-5.,89.,0.));
#1984=CARTESIAN_POINT('',(-5.,89.,0.));
#1985=CARTESIAN_POINT('',(-5.,89.,3.));
#1986=CARTESIAN_POINT('Origin',(28.5,42.,3.));
#1987=CARTESIAN_POINT('Origin',(28.5,42.,0.));
#1988=UNCERTAINTY_MEASURE_WITH_UNIT(LENGTH_MEASURE(0.01),#1992,
'DISTANCE_ACCURACY_VALUE',
'Maximum model space distance between geometric entities at asserted c
onnectivities');
#1989=UNCERTAINTY_MEASURE_WITH_UNIT(LENGTH_MEASURE(0.01),#1992,
'DISTANCE_ACCURACY_VALUE',
'Maximum model space distance between geometric entities at asserted c
onnectivities');
#1990=(
GEOMETRIC_REPRESENTATION_CONTEXT(3)
GLOBAL_UNCERTAINTY_ASSIGNED_CONTEXT((#1988))
GLOBAL_UNIT_ASSIGNED_CONTEXT((#1992,#1994,#1995))
REPRESENTATION_CONTEXT('','3D')
);
#1991=(
GEOMETRIC_REPRESENTATION_CONTEXT(3)
GLOBAL_UNCERTAINTY_ASSIGNED_CONTEXT((#1989))
GLOBAL_UNIT_ASSIGNED_CONTEXT((#1992,#1994,#1995))
REPRESENTATION_CONTEXT('','3D')
);
#1992=(
LENGTH_UNIT()
NAMED_UNIT(*)
SI_UNIT(.MILLI.,.METRE.)
);
#1993=(
LENGTH_UNIT()
NAMED_UNIT(*)
SI_UNIT($,.METRE.)
);
#1994=(
NAMED_UNIT(*)
PLANE_ANGLE_UNIT()
SI_UNIT($,.RADIAN.)
);
#1995=(
NAMED_UNIT(*)
SI_UNIT($,.STERADIAN.)
SOLID_ANGLE_UNIT()
);
#1996=SHAPE_DEFINITION_REPRESENTATION(#1997,#1998);
#1997=PRODUCT_DEFINITION_SHAPE('',$,#2000);
#1998=SHAPE_REPRESENTATION('',(#1244),#1990);
#1999=PRODUCT_DEFINITION_CONTEXT('part definition',#2004,'design');
#2000=PRODUCT_DEFINITION('coperchio_jeopardy','coperchio_jeopardy v6',#2001,
#1999);
#2001=PRODUCT_DEFINITION_FORMATION('',$,#2006);
#2002=PRODUCT_RELATED_PRODUCT_CATEGORY('coperchio_jeopardy v6',
'coperchio_jeopardy v6',(#2006));
#2003=APPLICATION_PROTOCOL_DEFINITION('international standard',
'automotive_design',2009,#2004);
#2004=APPLICATION_CONTEXT(
'Core Data for Automotive Mechanical Design Process');
#2005=PRODUCT_CONTEXT('part definition',#2004,'mechanical');
#2006=PRODUCT('coperchio_jeopardy','coperchio_jeopardy v6',$,(#2005));
#2007=PRESENTATION_STYLE_ASSIGNMENT((#2008));
#2008=SURFACE_STYLE_USAGE(.BOTH.,#2009);
#2009=SURFACE_SIDE_STYLE('',(#2010));
#2010=SURFACE_STYLE_FILL_AREA(#2011);
#2011=FILL_AREA_STYLE('Acciaio - Satinato',(#2012));
#2012=FILL_AREA_STYLE_COLOUR('Acciaio - Satinato',#2013);
#2013=COLOUR_RGB('Acciaio - Satinato',0.627450980392157,0.627450980392157,
0.627450980392157);
ENDSEC;
END-ISO-10303-21;
